<?xml version="1.0" standalone="no"?>
<!DOCTYPE svg PUBLIC "-//W3C//DTD SVG 20010904//EN"
 "http://www.w3.org/TR/2001/REC-SVG-20010904/DTD/svg10.dtd">
<svg version="1.0" xmlns="http://www.w3.org/2000/svg"
 width="300.000000pt" height="225.000000pt" viewBox="0 0 300.000000 225.000000"
 preserveAspectRatio="xMidYMid meet">

<g transform="translate(0.000000,225.000000) scale(0.100000,-0.100000)"
fill="#000000" stroke="none">
<path d="M1377 2176 c-27 -7 -58 -22 -69 -33 -17 -18 -18 -23 -6 -42 12 -20 9
-24 -33 -61 -25 -21 -52 -52 -58 -68 -12 -28 -15 -29 -69 -28 -51 1 -57 -1
-57 -20 0 -11 -6 -28 -13 -37 -8 -9 -14 -32 -14 -52 0 -40 -10 -44 -32 -13
-15 21 -14 24 14 46 33 26 34 55 2 80 -22 17 -77 15 -92 -3 -25 -30 -58 -10
-62 39 -1 14 -5 26 -9 26 -11 0 -37 -34 -48 -63 -6 -15 -18 -30 -26 -34 -22
-8 -65 13 -65 32 0 28 -27 15 -36 -17 -7 -23 -24 -43 -57 -64 -62 -41 -92 -69
-128 -121 -19 -27 -39 -44 -58 -48 -54 -12 -121 -108 -121 -172 0 -23 -18 -14
-24 13 -7 26 -48 74 -64 74 -5 0 -9 -45 -8 -101 1 -95 2 -102 26 -121 19 -15
35 -19 67 -15 l42 4 -16 -36 c-23 -52 -21 -171 5 -243 l21 -57 -26 -3 c-14 -2
-30 -11 -34 -20 -5 -10 -13 -26 -17 -35 -12 -24 -27 -26 -46 -8 -22 23 -20 34
9 41 14 3 32 19 41 35 14 28 13 31 -10 54 -29 29 -46 31 -86 10 -42 -22 -60
-53 -60 -105 0 -75 60 -150 119 -150 14 0 20 -10 25 -41 8 -52 44 -89 87 -89
28 0 31 2 17 13 -48 37 -9 112 65 124 34 5 42 2 71 -28 17 -19 61 -61 95 -93
35 -33 72 -74 82 -90 21 -34 26 -115 9 -146 -9 -16 -8 -18 5 -14 33 13 56 81
57 165 l0 79 29 -31 c32 -34 60 -33 92 3 25 29 23 117 -3 150 -19 25 -19 26 0
66 50 103 -7 232 -102 232 -38 0 -67 -28 -79 -76 -6 -24 -16 -44 -21 -44 -6 0
-23 -11 -40 -25 -35 -29 -102 -34 -147 -10 -63 32 -101 182 -65 260 18 40 18
40 22 12 2 -16 -2 -35 -9 -43 -20 -24 41 -18 68 7 l22 22 11 -27 c14 -38 13
-112 -4 -176 -8 -30 -13 -57 -11 -58 7 -7 94 80 100 99 9 26 23 24 27 -3 3
-23 3 -23 21 3 30 45 32 108 5 177 l-25 61 46 -6 c38 -4 49 -2 65 16 11 12 14
21 8 21 -16 0 -42 29 -42 47 0 13 5 12 24 -6 13 -12 36 -25 51 -29 l28 -8 -24
-27 c-13 -15 -42 -35 -63 -46 -39 -18 -39 -19 -16 -31 51 -27 111 -11 202 52
9 7 20 9 24 5 9 -9 -15 -37 -41 -47 -16 -7 -13 -9 15 -9 19 -1 47 5 62 13 15
8 42 14 60 14 18 -1 40 1 48 3 10 3 16 -5 18 -23 3 -28 2 -28 -52 -28 l-56 0
0 -323 c0 -363 7 -418 72 -540 62 -117 212 -251 345 -308 l45 -19 72 35 c146
71 262 181 325 311 55 111 61 156 61 517 l0 327 -227 0 -227 0 48 30 47 30 71
-25 c64 -23 80 -25 157 -19 47 4 88 10 91 15 3 4 24 3 46 -3 23 -6 50 -8 60
-4 17 7 15 9 -13 21 -18 8 -33 21 -33 30 0 12 12 9 60 -16 51 -27 69 -31 111
-27 28 3 58 12 66 21 14 14 12 16 -24 26 -22 6 -53 23 -69 37 l-28 27 24 9
c14 5 37 20 51 34 l26 25 -5 -26 c-2 -15 -13 -30 -24 -34 -19 -7 -19 -7 1 -25
20 -18 53 -19 95 -1 16 7 18 5 12 -11 -35 -87 -29 -174 14 -226 l19 -23 1 30
0 30 31 -38 c24 -29 109 -88 109 -75 0 2 -9 27 -20 56 -24 62 -35 161 -22 181
8 11 14 11 33 -3 21 -14 69 -23 69 -12 0 2 -7 16 -14 32 -16 29 -12 49 6 38
19 -12 38 -73 38 -121 0 -71 -18 -123 -55 -160 -28 -28 -40 -33 -83 -33 -32 0
-57 6 -73 18 -13 10 -32 21 -41 25 -10 3 -18 16 -18 27 0 31 -53 80 -85 80
-44 0 -102 -65 -110 -124 -7 -41 -4 -55 22 -105 27 -52 29 -61 17 -82 -20 -36
-17 -99 6 -137 18 -29 25 -33 58 -30 30 2 40 9 52 33 l14 30 8 -69 c9 -76 39
-140 77 -165 l25 -16 -19 29 c-25 38 -24 110 2 161 12 22 45 67 75 101 30 33
65 75 77 93 22 30 28 33 63 28 67 -9 110 -62 84 -102 -21 -32 -20 -33 9 -27
39 7 75 57 75 103 0 36 3 40 31 46 45 9 81 62 87 129 5 64 -9 99 -50 120 -57
29 -118 7 -118 -43 0 -26 30 -53 59 -53 33 0 25 -44 -9 -48 -19 -2 -29 5 -42
28 -12 22 -24 30 -44 30 -21 0 -25 4 -19 18 3 9 9 56 12 103 6 90 -4 142 -38
190 l-18 26 43 -1 c81 -2 104 43 80 157 -8 38 -12 73 -8 78 3 5 0 9 -5 9 -21
0 -50 -39 -61 -81 l-12 -42 -24 59 c-13 32 -24 60 -24 61 0 12 -88 63 -108 63
-17 0 -40 17 -74 54 -35 39 -68 62 -112 81 -50 21 -67 34 -79 61 -17 34 -37
46 -37 21 0 -39 -74 -63 -84 -29 -4 10 -20 31 -36 47 l-30 29 0 -31 c0 -18 -7
-39 -16 -48 -15 -14 -18 -14 -40 0 -50 32 -114 4 -114 -51 0 -19 7 -28 30 -37
35 -13 38 -27 10 -52 -19 -18 -20 -17 -20 7 0 33 -33 74 -65 82 -20 5 -25 12
-25 40 0 59 -27 127 -67 168 -67 68 -214 103 -316 74z m118 -15 c16 -7 11 -10
-25 -16 -24 -4 -64 -16 -87 -26 -38 -16 -44 -17 -50 -3 -7 19 -3 23 44 39 42
16 88 18 118 6z m114 -55 c39 -21 87 -77 101 -121 17 -52 8 -174 -19 -262 -20
-63 -21 -79 -12 -123 6 -28 11 -55 11 -60 0 -5 -26 -23 -58 -39 -73 -37 -87
-54 -87 -105 0 -35 -3 -41 -22 -44 -14 -2 -23 2 -24 10 -1 7 -2 18 -4 23 -1 6
-3 14 -3 20 -1 5 -22 -10 -45 -33 -47 -46 -111 -72 -178 -72 -32 0 -41 5 -53
28 -38 74 -25 152 32 184 44 26 57 6 48 -72 l-7 -61 38 17 c21 9 64 24 95 33
32 9 63 22 70 29 18 18 0 16 -87 -12 -84 -27 -80 -29 -89 45 l-5 46 57 13
c189 42 288 119 318 247 29 123 9 213 -58 263 -25 19 -49 25 -99 28 -63 4 -68
2 -100 -27 l-34 -31 24 -20 c16 -14 22 -27 18 -42 -4 -13 2 -31 14 -46 25 -32
24 -40 -5 -53 -18 -9 -41 -6 -102 11 -89 24 -104 33 -104 64 0 35 47 96 75 96
24 0 33 7 58 43 31 45 167 58 236 23z m-2 -62 c37 -23 56 -73 61 -157 4 -71 2
-82 -27 -142 -36 -72 -85 -117 -159 -145 -108 -41 -212 -34 -251 17 -12 14
-21 29 -21 33 0 4 27 3 61 -2 75 -12 133 0 137 27 8 56 13 63 52 79 22 9 64
16 93 16 29 0 58 5 65 12 16 16 16 140 0 156 -19 19 -44 14 -76 -13 -17 -14
-35 -25 -41 -25 -17 0 -33 40 -26 67 4 19 0 32 -15 48 -23 25 -19 31 28 46 33
10 90 2 119 -17z m446 -149 c12 8 33 15 47 15 14 0 32 5 40 10 11 7 16 4 20
-12 4 -16 20 -24 71 -37 79 -20 130 -56 156 -109 17 -37 20 -39 53 -35 50 7
91 -29 113 -99 9 -29 28 -66 41 -83 21 -26 26 -28 41 -15 12 10 15 23 11 44
-9 47 9 66 23 25 15 -44 14 -70 -5 -97 -18 -26 -50 -28 -82 -6 -29 20 -52 4
-52 -37 0 -33 -6 -36 -31 -13 -16 14 -18 14 -29 -7 -8 -14 -10 -43 -6 -81 5
-55 5 -58 -13 -49 -10 6 -24 25 -32 43 l-13 32 -13 -30 c-15 -35 -17 -152 -3
-188 5 -14 7 -26 4 -26 -20 0 -48 28 -64 63 -17 38 -19 40 -26 20 -3 -13 -10
-23 -15 -23 -19 0 -20 53 -3 124 10 42 15 79 11 82 -4 4 -18 2 -32 -4 -32 -15
-58 -15 -50 -1 4 6 14 38 21 72 8 34 28 81 44 104 17 23 30 44 30 47 0 4 -17
3 -38 0 -41 -6 -72 12 -72 42 0 16 16 19 25 4 3 -5 17 -10 30 -10 49 0 61 79
20 129 -34 39 -84 55 -154 48 -57 -6 -74 -16 -215 -126 -42 -32 -68 -45 -102
-49 -30 -3 -41 -8 -32 -13 31 -21 104 11 193 83 61 49 102 61 124 35 10 -13
-16 -39 -79 -78 -13 -8 -12 -11 4 -24 19 -14 19 -15 0 -36 -14 -16 -26 -20
-52 -15 -46 7 -62 -2 -62 -34 0 -43 50 -52 148 -26 52 13 65 9 37 -14 -24 -20
-6 -32 34 -25 36 7 36 7 17 -14 -18 -20 -18 -21 4 -29 l23 -8 -28 -22 c-15
-12 -41 -22 -56 -22 -16 0 -29 -4 -29 -8 0 -10 56 -63 90 -85 l24 -17 -41 0
c-65 0 -90 15 -182 105 -53 51 -103 90 -129 100 -60 24 -92 66 -92 120 0 64
11 106 29 112 31 11 51 36 51 65 0 17 4 27 10 23 6 -3 10 -21 10 -40 0 -48 15
-52 55 -12 25 25 35 44 35 65 0 34 -18 52 -31 31 -7 -11 -11 -11 -21 -1 -16
16 1 46 30 50 25 4 52 -32 52 -70 0 -30 14 -38 23 -14 3 8 1 17 -6 19 -7 2 5
20 28 43 l40 39 3 -32 c3 -32 4 -33 25 -18z m-1136 -5 c4 0 14 -4 22 -9 12 -8
12 -13 3 -24 -10 -12 -9 -16 3 -21 12 -4 15 3 15 34 0 31 5 43 26 56 24 16 26
16 44 -2 23 -23 12 -56 -13 -36 -18 15 -27 6 -27 -30 0 -35 48 -88 80 -88 19
0 20 4 14 38 -9 49 4 35 28 -30 31 -87 31 -87 13 -94 -27 -11 -84 12 -169 65
-132 84 -230 89 -303 16 -26 -26 -33 -41 -33 -73 0 -64 42 -92 82 -55 17 15
18 15 18 -9 0 -36 -23 -52 -65 -45 -19 3 -35 3 -35 0 0 -3 18 -25 39 -50 22
-24 48 -68 57 -96 9 -29 22 -58 28 -66 9 -12 4 -13 -36 -8 -27 4 -48 4 -48 0
0 -4 12 -44 27 -89 16 -49 23 -89 19 -100 -7 -18 -8 -18 -17 -1 -14 24 -26 21
-33 -9 -8 -32 -35 -74 -47 -74 -5 0 -9 31 -9 68 0 67 -24 162 -40 162 -5 0
-11 -14 -15 -30 -4 -17 -15 -35 -26 -40 -18 -10 -19 -7 -19 48 0 35 -6 66 -14
78 -15 19 -15 19 -30 -1 -14 -17 -17 -18 -26 -5 -5 8 -10 23 -10 33 0 24 -27
33 -48 15 -41 -36 -75 -31 -98 13 -14 29 -10 109 6 109 10 0 20 -37 20 -72 0
-22 5 -28 21 -28 23 0 53 58 64 128 10 63 43 97 94 97 27 0 41 4 41 13 0 26
41 92 73 116 18 14 53 33 77 41 54 19 70 32 63 52 -5 12 -1 14 18 7 13 -4 34
-7 47 -6 13 1 32 -3 43 -8 17 -10 19 -7 19 26 l0 37 25 -27 c13 -14 28 -26 32
-26z m248 20 c16 -12 135 -48 199 -60 76 -15 116 -7 166 35 34 29 45 33 61 24
17 -8 19 -19 17 -62 l-3 -52 -45 2 c-81 4 -160 -35 -160 -81 0 -43 -14 -49
-84 -43 -67 6 -128 31 -158 64 -19 20 -41 71 -52 116 l-7 28 49 -25 c114 -58
268 -76 342 -42 19 9 26 14 15 10 -80 -24 -232 -11 -307 27 -37 19 -78 56 -78
71 0 8 27 0 45 -12z m613 -97 c2 -11 -4 -26 -13 -33 -13 -11 -15 -8 -15 25 0
39 22 46 28 8z m469 -37 c23 -27 31 -80 14 -90 -12 -8 -34 21 -26 34 3 5 -2
10 -14 10 -22 0 -51 -35 -51 -63 0 -31 29 -76 54 -83 l24 -6 -25 -44 c-29 -51
-50 -69 -39 -33 20 65 20 66 -12 61 -27 -4 -30 -2 -25 17 7 26 9 26 -79 1 -88
-24 -138 -26 -138 -5 0 11 11 15 38 15 45 0 98 31 114 66 10 21 9 27 -3 35
-12 8 -12 10 0 18 8 5 21 7 29 4 12 -5 14 1 10 28 -3 19 -9 42 -13 53 -8 17
-4 18 55 14 53 -4 67 -9 87 -32z m-1442 4 c4 -6 1 -17 -5 -25 -20 -24 -8 -60
19 -60 13 0 26 -6 28 -12 3 -7 0 -13 -6 -13 -17 0 14 -56 36 -65 10 -5 43 -11
73 -14 30 -3 54 -10 52 -16 -3 -11 -118 -13 -174 -3 -36 6 -38 5 -38 -19 0
-22 -3 -24 -25 -19 -29 7 -31 -3 -10 -44 14 -27 14 -30 0 -30 -8 0 -15 4 -15
9 0 5 -11 23 -25 39 l-24 29 29 22 c25 18 30 29 30 61 0 27 -7 47 -20 60 -27
27 -50 26 -47 -2 1 -15 -3 -23 -13 -23 -24 0 -24 57 0 88 29 37 120 62 135 37z
m162 -60 c48 -27 103 -52 122 -55 20 -4 46 -8 58 -11 14 -2 37 -26 58 -60 20
-31 35 -57 33 -58 -39 -23 -79 -63 -85 -83 -3 -15 -33 -52 -66 -82 -84 -78
-88 -80 -72 -28 21 71 8 73 -60 8 -57 -55 -68 -61 -104 -61 l-42 0 33 29 c18
16 41 43 51 60 l18 31 -39 0 c-21 0 -47 7 -58 15 -18 14 -18 16 -1 26 16 10
16 12 -5 29 l-23 19 44 1 44 0 -21 23 -21 22 77 -3 c88 -4 132 8 132 37 0 30
-23 42 -71 35 -35 -5 -48 -2 -59 11 -12 15 -12 19 5 31 10 8 17 15 14 16 -2 2
-20 11 -39 21 -63 32 -75 44 -60 62 20 24 44 18 137 -35z m831 -244 c13 -13
10 -15 -24 -22 -53 -9 -91 -30 -141 -75 -53 -49 -71 -50 -43 -4 18 29 20 38
10 50 -16 19 1 42 45 62 37 17 132 10 153 -11z m90 -48 c16 -16 15 -50 -3 -74
-8 -10 -15 -27 -15 -36 0 -26 -14 -22 -54 12 -44 39 -62 86 -38 100 24 13 96
12 110 -2z m692 -40 c14 -31 20 -66 20 -126 0 -143 -45 -241 -179 -384 -39
-42 -87 -102 -105 -132 -31 -51 -34 -54 -40 -33 -3 13 -1 39 4 58 6 19 10 34
10 35 0 1 -22 -3 -48 -8 -42 -9 -48 -13 -47 -35 0 -34 -16 -38 -48 -13 -22 17
-27 30 -27 65 0 35 5 48 26 64 15 12 33 21 40 21 8 0 -9 22 -36 48 -46 45 -50
52 -50 96 0 39 5 53 29 77 45 44 109 33 99 -18 -3 -15 -12 -17 -46 -15 -41 3
-42 2 -42 -26 0 -38 29 -74 79 -96 52 -24 71 -16 71 29 0 43 16 51 56 30 40
-21 72 -19 124 8 64 32 84 77 85 187 0 66 -5 95 -22 132 -14 32 -17 45 -8 42
7 -3 16 4 20 15 9 29 13 27 35 -21z m-860 -59 l21 -41 -33 7 c-18 4 -44 14
-56 22 -23 14 -23 15 -6 34 27 30 51 23 74 -22z m215 11 c10 -11 15 -23 12
-27 -8 -7 -47 25 -47 39 0 14 16 9 35 -12z m-1496 -15 c14 8 14 8 -4 -40 -20
-56 -18 -122 5 -197 21 -68 45 -97 98 -118 40 -15 107 -8 132 15 26 24 50 12
50 -23 0 -43 19 -54 58 -35 45 22 82 69 82 104 0 34 -19 46 -49 30 -27 -15
-56 12 -41 39 25 46 101 25 126 -36 20 -48 9 -94 -32 -143 l-35 -40 36 -15
c60 -25 71 -108 20 -142 -30 -19 -48 -9 -42 22 4 23 1 24 -45 24 -44 0 -49 -2
-43 -17 4 -10 9 -38 12 -63 4 -40 3 -43 -9 -24 -33 53 -80 101 -165 170 -100
82 -157 156 -194 252 -30 79 -36 176 -15 227 16 37 18 39 31 21 8 -10 18 -15
24 -11z m676 15 c-3 -5 -16 -15 -28 -21 -21 -10 -21 -9 2 10 25 23 36 27 26
11z m365 -5 c7 -8 22 -15 34 -15 21 -1 21 -1 -3 -21 -14 -12 -31 -17 -43 -14
-11 4 -34 -3 -56 -17 -31 -19 -50 -23 -123 -23 -48 0 -85 4 -82 9 11 18 75 36
126 36 44 0 58 5 87 30 41 34 44 35 60 15z m-322 -147 c8 -8 15 -8 25 1 11 8
107 11 359 9 l345 -3 -358 -400 c-196 -220 -362 -401 -367 -403 -12 -4 -48 82
-67 160 -11 48 -15 131 -15 356 l0 292 33 0 c18 0 38 -5 45 -12z m1633 -17
c20 -20 29 -40 29 -61 0 -44 -36 -109 -68 -121 -54 -22 -57 -25 -54 -62 2 -20
-2 -46 -9 -58 -11 -22 -12 -22 -24 8 -15 36 -79 83 -112 83 -13 0 -23 6 -23
14 0 20 39 66 56 66 8 0 19 12 24 26 14 35 46 29 42 -8 -2 -22 2 -27 28 -33
59 -13 115 49 91 101 -9 21 -14 24 -26 14 -20 -16 -45 -5 -45 19 0 20 24 40
48 41 8 0 27 -13 43 -29z m-873 -366 c-3 -231 -5 -255 -27 -315 -34 -95 -103
-194 -183 -259 -66 -54 -179 -120 -206 -121 -17 0 -107 46 -160 82 -61 42
-154 137 -150 153 2 8 165 195 363 417 l360 403 3 -55 c2 -30 2 -167 0 -305z
m-1629 281 c20 -23 2 -49 -30 -42 -35 7 -47 -20 -27 -61 20 -42 58 -60 96 -44
27 11 30 17 25 42 -7 37 15 39 45 4 12 -14 28 -25 36 -25 13 0 56 -49 56 -63
0 -2 -13 -7 -29 -10 -37 -8 -90 -62 -98 -100 -6 -28 -7 -29 -20 -12 -7 11 -13
35 -13 55 0 43 -14 60 -51 60 -18 0 -37 11 -58 35 -35 40 -46 73 -37 110 14
54 77 85 105 51z m1938 -33 c14 -3 22 -15 25 -35 7 -46 -19 -48 -59 -5 -39 43
-43 62 -10 52 12 -3 32 -9 44 -12z m-1412 -63 c-33 -48 -55 -52 -55 -11 0 22
8 34 32 50 47 29 57 11 23 -39z"/>
<path d="M1551 1857 c-6 -8 -8 -16 -5 -20 10 -9 34 4 34 19 0 18 -14 18 -29 1z"/>
<path d="M1120 1150 c0 -5 7 -7 15 -4 13 5 15 -16 15 -159 0 -165 -4 -202 -21
-191 -5 3 -9 1 -9 -4 0 -5 15 -13 33 -17 42 -10 237 -10 305 0 l52 8 0 148 c0
93 4 149 10 149 6 0 10 -15 10 -34 0 -47 9 -66 31 -66 25 0 24 26 -1 40 -13 7
-20 21 -20 39 0 16 -7 31 -15 35 -8 3 -15 16 -15 30 0 35 -64 53 -76 21 -4
-11 -22 -15 -63 -16 -39 -1 -49 -3 -31 -8 16 -4 25 -14 25 -26 0 -29 -89 -45
-113 -21 -14 13 -14 20 -4 36 11 18 10 20 -19 20 -17 0 -37 7 -45 15 -17 17
-64 21 -64 5z m350 -97 c0 -133 -11 -264 -21 -257 -10 6 -12 337 -2 347 18 19
23 -1 23 -90z m-242 40 c-2 -10 -13 -19 -26 -21 -17 -3 -22 2 -22 17 0 16 6
21 26 21 19 0 25 -5 22 -17z m202 -3 c0 -13 -7 -20 -19 -20 -22 0 -35 15 -26
30 12 19 45 11 45 -10z m-180 -64 c0 -19 -6 -37 -12 -39 -8 -4 -7 -6 3 -6 18
-1 29 18 29 50 0 12 7 19 19 19 10 0 46 3 80 6 l61 7 0 -61 0 -61 -32 10 c-18
5 -72 9 -120 9 l-88 0 0 43 c0 50 4 57 37 57 20 0 23 -5 23 -34z m-10 -80 c0
-3 -4 -8 -10 -11 -5 -3 -10 -1 -10 4 0 6 5 11 10 11 6 0 10 -2 10 -4z m50 0
c0 -11 -19 -15 -25 -6 -3 5 1 10 9 10 9 0 16 -2 16 -4z m-107 -60 c4 -9 14
-12 26 -9 16 4 21 0 22 -13 1 -17 2 -17 6 -1 5 18 33 24 33 6 0 -6 5 -7 13 -2
6 4 27 8 45 10 24 1 32 -2 33 -15 1 -15 2 -15 6 1 5 20 29 23 36 5 3 -8 6 -7
6 4 1 9 6 20 11 23 6 4 10 -15 10 -49 l0 -55 -38 -12 c-55 -16 -210 -8 -222
11 -12 19 -13 110 -1 110 5 0 11 -6 14 -14z"/>
<path d="M1737 909 c-51 -27 -87 -85 -97 -156 -4 -32 -15 -87 -25 -122 -9 -35
-15 -74 -12 -87 2 -13 -2 -29 -9 -35 -8 -6 -14 -8 -14 -4 0 5 -9 0 -20 -10
-19 -17 -20 -17 -30 10 -10 27 -3 101 9 90 3 -4 12 -21 18 -38 12 -30 12 -29
7 20 -4 37 -1 61 9 83 9 16 12 30 8 30 -10 0 -46 -40 -60 -67 -14 -28 -14
-108 0 -148 11 -29 9 -36 -18 -76 -45 -65 -85 -148 -81 -167 3 -11 16 7 36 46
38 76 89 149 109 157 9 3 36 -8 61 -25 48 -32 85 -37 127 -18 34 15 32 28 -5
28 -16 0 -30 -4 -30 -10 0 -22 -65 -9 -98 19 -32 27 -33 29 -13 36 22 7 50 -5
71 -29 7 -9 17 -16 22 -16 5 0 -7 15 -27 34 l-36 34 25 51 c14 27 30 52 35 55
5 4 18 -7 27 -24 22 -36 34 -38 34 -7 0 12 5 29 10 37 8 13 15 12 50 -7 45
-24 47 -21 26 52 -14 45 -14 49 6 75 28 39 35 108 13 153 -9 20 -14 41 -10 46
11 19 -78 11 -118 -10z m43 -78 c0 -84 -14 -102 -55 -69 -23 18 -26 26 -21 56
6 37 40 82 63 82 9 0 13 -18 13 -69z m50 43 c0 -32 -18 -66 -31 -59 -12 8 -12
27 1 59 12 33 30 33 30 0z m30 -67 c0 -46 -30 -102 -55 -102 -32 0 -30 38 7
93 37 55 48 57 48 9z m-162 -32 c7 -14 23 -30 36 -37 31 -14 39 -33 20 -49
-37 -31 -104 31 -90 84 8 34 19 34 34 2z m-10 -97 c21 -21 13 -43 -29 -83
l-42 -40 7 42 c12 80 35 110 64 81z m132 -17 c5 -11 10 -27 10 -35 0 -13 -4
-13 -30 2 -16 9 -30 25 -30 35 0 24 37 22 50 -2z m-70 -33 c-1 -40 -2 -42 -15
-24 -20 26 -19 66 0 66 11 0 15 -11 15 -42z"/>
</g>
</svg>
