<svg xmlns="http://www.w3.org/2000/svg" xmlns:xlink="http://www.w3.org/1999/xlink" width="500" zoomAndPan="magnify" viewBox="0 0 375 104.88" height="130" preserveAspectRatio="xMidYMid meet" version="1.2"><defs/><g id="d78cd3b823"><g style="fill:#ffffff;fill-opacity:1;"><g transform="translate(128.276108, 37.012809)"><path style="stroke:none" d="M 20.472656 -7.148438 C 20.472656 -10.761719 18.363281 -12.984375 14.902344 -14.226562 L 9.632812 -16.144531 C 6.773438 -17.199219 5.71875 -18.589844 5.71875 -20.773438 C 5.71875 -23.972656 8.542969 -24.875 10.6875 -24.875 C 14.714844 -24.875 17.160156 -21.75 17.535156 -19.117188 L 18.175781 -19.117188 L 18.175781 -25.441406 L 17.726562 -25.441406 C 17.046875 -24.535156 15.917969 -24.386719 14.789062 -24.835938 C 13.660156 -25.25 12.417969 -25.703125 10.726562 -25.703125 C 6.546875 -25.703125 3.125 -22.957031 3.125 -19.191406 C 3.125 -15.578125 5.042969 -13.660156 8.503906 -12.382812 L 13.246094 -10.613281 C 15.882812 -9.632812 17.160156 -7.789062 17.160156 -5.570312 C 17.160156 -2.296875 15.089844 -0.488281 11.253906 -0.488281 C 7.453125 -0.488281 3.6875 -4.0625 2.519531 -8.203125 L 1.882812 -8.203125 L 1.882812 -0.414062 L 2.371094 -0.414062 C 2.859375 -1.242188 3.6875 -1.542969 5.53125 -1.054688 C 7.675781 -0.453125 8.769531 0.375 11.742188 0.375 C 17.988281 0.375 20.472656 -4.402344 20.472656 -7.148438 Z M 20.472656 -7.148438 "/></g></g><g style="fill:#ffffff;fill-opacity:1;"><g transform="translate(149.951416, 37.012809)"><path style="stroke:none" d="M 23.746094 -0.828125 L 20.773438 -0.828125 L 11.589844 -25.855469 L 11.175781 -25.855469 L 2.296875 -0.828125 L -0.675781 -0.828125 L -0.675781 0 L 5.832031 0 L 5.832031 -0.828125 L 3.199219 -0.828125 L 5.644531 -7.976562 L 14.261719 -7.976562 L 16.859375 -0.828125 L 13.847656 -0.828125 L 13.847656 0 L 23.746094 0 Z M 6.019531 -8.882812 L 9.859375 -19.683594 L 9.972656 -19.683594 L 13.960938 -8.882812 Z M 6.019531 -8.882812 "/></g></g><g style="fill:#ffffff;fill-opacity:1;"><g transform="translate(173.131952, 37.012809)"><path style="stroke:none" d="M 20.734375 -6.324219 C 20.734375 -10.234375 17.046875 -12.605469 14.714844 -13.246094 L 14.714844 -13.320312 C 16.859375 -13.8125 19.871094 -15.203125 19.871094 -18.703125 C 19.871094 -21.976562 16.859375 -25.289062 11.589844 -25.289062 L 1.355469 -25.289062 L 1.355469 -24.460938 L 4.367188 -24.460938 L 4.367188 -0.828125 L 1.355469 -0.828125 L 1.355469 0 L 11.101562 0 C 19.15625 0 20.734375 -3.460938 20.734375 -6.324219 Z M 16.070312 -19.417969 C 16.070312 -14.449219 14.074219 -13.621094 10.988281 -13.621094 L 8.203125 -13.621094 L 8.203125 -24.460938 L 11.363281 -24.460938 C 14.675781 -24.460938 16.070312 -22.503906 16.070312 -19.417969 Z M 16.933594 -7.074219 C 16.933594 -3.160156 15.429688 -0.828125 11.515625 -0.828125 L 8.203125 -0.828125 L 8.203125 -12.796875 L 12.042969 -12.796875 C 15.277344 -12.796875 16.933594 -10.613281 16.933594 -7.074219 Z M 16.933594 -7.074219 "/></g></g><g style="fill:#ffffff;fill-opacity:1;"><g transform="translate(195.559878, 37.012809)"><path style="stroke:none" d="M 22.730469 -0.941406 C 22.164062 -0.527344 21.75 -0.339844 21.1875 -0.339844 C 20.472656 -0.339844 19.605469 -0.488281 19.378906 -1.996094 C 19.15625 -3.5 19.230469 -5.417969 19.117188 -7.527344 C 18.96875 -9.933594 18.140625 -11.027344 16.484375 -12.117188 C 15.882812 -12.492188 14.828125 -12.871094 14.148438 -13.210938 L 14.148438 -13.320312 C 16.707031 -13.734375 19.53125 -15.242188 19.53125 -18.441406 C 19.53125 -22.84375 15.84375 -25.289062 9.785156 -25.289062 L 1.355469 -25.289062 L 1.355469 -24.460938 L 4.367188 -24.460938 L 4.367188 -0.828125 L 1.355469 -0.828125 L 1.355469 0 L 11.214844 0 L 11.214844 -0.828125 L 8.203125 -0.828125 L 8.203125 -12.984375 L 11.855469 -12.984375 C 13.734375 -12.984375 15.277344 -12.191406 15.429688 -9.972656 C 15.542969 -8.054688 15.503906 -5.871094 15.65625 -3.726562 C 15.84375 -1.128906 17.875 0.488281 20.734375 0.488281 C 21.902344 0.488281 22.429688 0.1875 23.105469 -0.261719 Z M 15.84375 -19.230469 C 15.84375 -15.429688 14.226562 -13.8125 11.703125 -13.8125 L 8.203125 -13.8125 L 8.203125 -24.460938 L 10.125 -24.460938 C 14.375 -24.460938 15.84375 -22.65625 15.84375 -19.230469 Z M 15.84375 -19.230469 "/></g></g><g style="fill:#ffffff;fill-opacity:1;"><g transform="translate(217.837282, 37.012809)"><path style="stroke:none" d="M 22.917969 -7.867188 L 22.355469 -7.867188 C 21.863281 -3.3125 17.535156 -0.828125 14.601562 -0.828125 L 8.203125 -0.828125 L 8.203125 -12.53125 L 10.046875 -12.53125 C 13.320312 -12.53125 15.277344 -10.800781 15.277344 -7.375 L 15.84375 -7.375 L 15.84375 -18.402344 L 15.277344 -18.402344 C 15.277344 -15.203125 12.945312 -13.433594 10.046875 -13.433594 L 8.203125 -13.433594 L 8.203125 -24.460938 L 15.164062 -24.460938 C 18.101562 -24.460938 20.585938 -22.804688 20.921875 -18.96875 L 21.488281 -18.96875 L 21.488281 -25.289062 L 1.355469 -25.289062 L 1.355469 -24.460938 L 4.367188 -24.460938 L 4.367188 -0.828125 L 1.355469 -0.828125 L 1.355469 0 L 22.917969 0 Z M 22.917969 -7.867188 "/></g></g><g style="fill:#ffffff;fill-opacity:1;"><g transform="translate(242.711202, 37.012809)"><path style="stroke:none" d=""/></g></g><g style="fill:#ffffff;fill-opacity:1;"><g transform="translate(250.237348, 37.012809)"><path style="stroke:none" d="M 20.472656 -7.148438 C 20.472656 -10.761719 18.363281 -12.984375 14.902344 -14.226562 L 9.632812 -16.144531 C 6.773438 -17.199219 5.71875 -18.589844 5.71875 -20.773438 C 5.71875 -23.972656 8.542969 -24.875 10.6875 -24.875 C 14.714844 -24.875 17.160156 -21.75 17.535156 -19.117188 L 18.175781 -19.117188 L 18.175781 -25.441406 L 17.726562 -25.441406 C 17.046875 -24.535156 15.917969 -24.386719 14.789062 -24.835938 C 13.660156 -25.25 12.417969 -25.703125 10.726562 -25.703125 C 6.546875 -25.703125 3.125 -22.957031 3.125 -19.191406 C 3.125 -15.578125 5.042969 -13.660156 8.503906 -12.382812 L 13.246094 -10.613281 C 15.882812 -9.632812 17.160156 -7.789062 17.160156 -5.570312 C 17.160156 -2.296875 15.089844 -0.488281 11.253906 -0.488281 C 7.453125 -0.488281 3.6875 -4.0625 2.519531 -8.203125 L 1.882812 -8.203125 L 1.882812 -0.414062 L 2.371094 -0.414062 C 2.859375 -1.242188 3.6875 -1.542969 5.53125 -1.054688 C 7.675781 -0.453125 8.769531 0.375 11.742188 0.375 C 17.988281 0.375 20.472656 -4.402344 20.472656 -7.148438 Z M 20.472656 -7.148438 "/></g></g><g style="fill:#ffffff;fill-opacity:1;"><g transform="translate(271.912657, 37.012809)"><path style="stroke:none" d="M 22.617188 -25.289062 L 1.167969 -25.289062 L 1.167969 -18.0625 L 1.769531 -18.0625 C 2.296875 -21.601562 4.890625 -24.460938 7.867188 -24.460938 L 9.972656 -24.460938 L 9.972656 -0.828125 L 6.960938 -0.828125 L 6.960938 0 L 16.820312 0 L 16.820312 -0.828125 L 13.8125 -0.828125 L 13.8125 -24.460938 L 15.917969 -24.460938 C 18.890625 -24.460938 21.488281 -21.601562 22.015625 -18.0625 L 22.617188 -18.0625 Z M 22.617188 -25.289062 "/></g></g><g style="fill:#ffffff;fill-opacity:1;"><g transform="translate(295.695288, 37.012809)"><path style="stroke:none" d="M 25.328125 -12.191406 C 25.328125 -18.515625 21.449219 -25.742188 13.886719 -25.742188 C 6.699219 -25.742188 2.257812 -18.363281 2.257812 -12.304688 C 2.257812 -5.605469 6.8125 0.453125 13.621094 0.453125 C 20.285156 0.453125 25.328125 -5.417969 25.328125 -12.191406 Z M 21.300781 -12.492188 C 21.300781 -4.328125 18.777344 -0.375 13.8125 -0.375 C 8.730469 -0.375 6.246094 -3.800781 6.246094 -13.097656 C 6.246094 -20.058594 8.503906 -24.914062 13.886719 -24.914062 C 19.53125 -24.914062 21.300781 -20.171875 21.300781 -12.492188 Z M 21.300781 -12.492188 "/></g></g><g style="fill:#ffffff;fill-opacity:1;"><g transform="translate(322.827062, 37.012809)"><path style="stroke:none" d="M 24.121094 -25.289062 L 17.199219 -25.289062 L 17.199219 -24.460938 L 20.207031 -24.460938 L 20.207031 -7.039062 L 20.097656 -7.039062 L 8.429688 -25.289062 L 0.601562 -25.289062 L 0.601562 -24.460938 L 3.613281 -24.460938 L 3.613281 -0.828125 L 0.601562 -0.828125 L 0.601562 0 L 7.527344 0 L 7.527344 -0.828125 L 4.515625 -0.828125 L 4.515625 -24.460938 L 4.628906 -24.460938 L 20.472656 0.488281 L 21.113281 0.488281 L 21.113281 -24.460938 L 24.121094 -24.460938 Z M 24.121094 -25.289062 "/></g></g><g style="fill:#ffffff;fill-opacity:1;"><g transform="translate(347.926765, 37.012809)"><path style="stroke:none" d="M 22.917969 -7.867188 L 22.355469 -7.867188 C 21.863281 -3.3125 17.535156 -0.828125 14.601562 -0.828125 L 8.203125 -0.828125 L 8.203125 -12.53125 L 10.046875 -12.53125 C 13.320312 -12.53125 15.277344 -10.800781 15.277344 -7.375 L 15.84375 -7.375 L 15.84375 -18.402344 L 15.277344 -18.402344 C 15.277344 -15.203125 12.945312 -13.433594 10.046875 -13.433594 L 8.203125 -13.433594 L 8.203125 -24.460938 L 15.164062 -24.460938 C 18.101562 -24.460938 20.585938 -22.804688 20.921875 -18.96875 L 21.488281 -18.96875 L 21.488281 -25.289062 L 1.355469 -25.289062 L 1.355469 -24.460938 L 4.367188 -24.460938 L 4.367188 -0.828125 L 1.355469 -0.828125 L 1.355469 0 L 22.917969 0 Z M 22.917969 -7.867188 "/></g></g><g style="fill:#ffffff;fill-opacity:1;"><g transform="translate(128.267786, 79.038265)"><path style="stroke:none" d="M 22.511719 -9.265625 L 21.949219 -9.265625 C 21.007812 -3.675781 15.980469 -0.335938 12.980469 -0.335938 C 9.003906 -0.335938 6.378906 -4.691406 6.378906 -11.894531 C 6.378906 -19.171875 8.855469 -24.835938 13.207031 -24.835938 C 17.859375 -24.835938 20.257812 -20.785156 21.160156 -16.921875 L 21.761719 -16.921875 L 21.761719 -24.648438 L 21.308594 -24.648438 C 20.632812 -23.859375 19.132812 -23.710938 17.933594 -24.386719 C 16.808594 -25.023438 15.269531 -25.660156 13.28125 -25.660156 C 8.929688 -25.660156 2.25 -21.308594 2.25 -12.417969 C 2.25 -4.988281 7.316406 0.488281 12.945312 0.488281 C 14.367188 0.488281 16.09375 0 17.332031 -0.601562 C 19.058594 -1.425781 21.085938 -1.164062 22.058594 -0.113281 L 22.511719 -0.113281 Z M 22.511719 -9.265625 "/></g></g><g style="fill:#ffffff;fill-opacity:1;"><g transform="translate(152.840351, 79.038265)"><path style="stroke:none" d="M 25.25 -12.15625 C 25.25 -18.457031 21.386719 -25.660156 13.84375 -25.660156 C 6.679688 -25.660156 2.25 -18.308594 2.25 -12.269531 C 2.25 -5.589844 6.789062 0.449219 13.582031 0.449219 C 20.222656 0.449219 25.25 -5.402344 25.25 -12.15625 Z M 21.234375 -12.457031 C 21.234375 -4.316406 18.722656 -0.375 13.769531 -0.375 C 8.703125 -0.375 6.226562 -3.789062 6.226562 -13.054688 C 6.226562 -19.996094 8.480469 -24.835938 13.84375 -24.835938 C 19.472656 -24.835938 21.234375 -20.109375 21.234375 -12.457031 Z M 21.234375 -12.457031 "/></g></g><g style="fill:#ffffff;fill-opacity:1;"><g transform="translate(179.88893, 79.038265)"><path style="stroke:none" d="M 29.789062 -0.824219 L 26.789062 -0.824219 L 26.789062 -24.386719 L 29.789062 -24.386719 L 29.789062 -25.210938 L 22.621094 -25.210938 L 15.832031 -5.550781 L 15.683594 -5.550781 L 8.328125 -25.210938 L 0.976562 -25.210938 L 0.976562 -24.386719 L 3.976562 -24.386719 L 3.976562 -0.824219 L 0.976562 -0.824219 L 0.976562 0 L 7.878906 0 L 7.878906 -0.824219 L 4.878906 -0.824219 L 4.878906 -24.125 L 14.105469 0.523438 L 14.667969 0.523438 L 23.035156 -23.785156 L 23.1875 -23.785156 L 23.1875 -0.824219 L 20.183594 -0.824219 L 20.183594 0 L 29.789062 0 Z M 29.789062 -0.824219 "/></g></g><g style="fill:#ffffff;fill-opacity:1;"><g transform="translate(211.401835, 79.038265)"><path style="stroke:none" d="M 29.789062 -0.824219 L 26.789062 -0.824219 L 26.789062 -24.386719 L 29.789062 -24.386719 L 29.789062 -25.210938 L 22.621094 -25.210938 L 15.832031 -5.550781 L 15.683594 -5.550781 L 8.328125 -25.210938 L 0.976562 -25.210938 L 0.976562 -24.386719 L 3.976562 -24.386719 L 3.976562 -0.824219 L 0.976562 -0.824219 L 0.976562 0 L 7.878906 0 L 7.878906 -0.824219 L 4.878906 -0.824219 L 4.878906 -24.125 L 14.105469 0.523438 L 14.667969 0.523438 L 23.035156 -23.785156 L 23.1875 -23.785156 L 23.1875 -0.824219 L 20.183594 -0.824219 L 20.183594 0 L 29.789062 0 Z M 29.789062 -0.824219 "/></g></g><g style="fill:#ffffff;fill-opacity:1;"><g transform="translate(242.91474, 79.038265)"><path style="stroke:none" d="M 22.847656 -7.839844 L 22.285156 -7.839844 C 21.796875 -3.300781 17.484375 -0.824219 14.558594 -0.824219 L 8.179688 -0.824219 L 8.179688 -12.492188 L 10.015625 -12.492188 C 13.28125 -12.492188 15.230469 -10.765625 15.230469 -7.351562 L 15.792969 -7.351562 L 15.792969 -18.347656 L 15.230469 -18.347656 C 15.230469 -15.15625 12.90625 -13.394531 10.015625 -13.394531 L 8.179688 -13.394531 L 8.179688 -24.386719 L 15.121094 -24.386719 C 18.046875 -24.386719 20.523438 -22.734375 20.859375 -18.910156 L 21.421875 -18.910156 L 21.421875 -25.210938 L 1.351562 -25.210938 L 1.351562 -24.386719 L 4.351562 -24.386719 L 4.351562 -0.824219 L 1.351562 -0.824219 L 1.351562 0 L 22.847656 0 Z M 22.847656 -7.839844 "/></g></g><g style="fill:#ffffff;fill-opacity:1;"><g transform="translate(267.712396, 79.038265)"><path style="stroke:none" d="M 22.660156 -0.9375 C 22.097656 -0.523438 21.683594 -0.335938 21.121094 -0.335938 C 20.410156 -0.335938 19.546875 -0.488281 19.320312 -1.988281 C 19.097656 -3.488281 19.171875 -5.402344 19.058594 -7.503906 C 18.910156 -9.90625 18.082031 -10.992188 16.433594 -12.082031 C 15.832031 -12.457031 14.78125 -12.832031 14.105469 -13.167969 L 14.105469 -13.28125 C 16.65625 -13.695312 19.472656 -15.195312 19.472656 -18.382812 C 19.472656 -22.773438 15.792969 -25.210938 9.753906 -25.210938 L 1.351562 -25.210938 L 1.351562 -24.386719 L 4.351562 -24.386719 L 4.351562 -0.824219 L 1.351562 -0.824219 L 1.351562 0 L 11.179688 0 L 11.179688 -0.824219 L 8.179688 -0.824219 L 8.179688 -12.945312 L 11.816406 -12.945312 C 13.695312 -12.945312 15.230469 -12.15625 15.382812 -9.941406 C 15.496094 -8.027344 15.457031 -5.851562 15.605469 -3.714844 C 15.792969 -1.125 17.820312 0.488281 20.671875 0.488281 C 21.835938 0.488281 22.359375 0.1875 23.035156 -0.261719 Z M 15.792969 -19.171875 C 15.792969 -15.382812 14.179688 -13.769531 11.667969 -13.769531 L 8.179688 -13.769531 L 8.179688 -24.386719 L 10.09375 -24.386719 C 14.332031 -24.386719 15.792969 -22.585938 15.792969 -19.171875 Z M 15.792969 -19.171875 "/></g></g><g style="fill:#ffffff;fill-opacity:1;"><g transform="translate(289.921504, 79.038265)"><path style="stroke:none" d="M 22.511719 -9.265625 L 21.949219 -9.265625 C 21.007812 -3.675781 15.980469 -0.335938 12.980469 -0.335938 C 9.003906 -0.335938 6.378906 -4.691406 6.378906 -11.894531 C 6.378906 -19.171875 8.855469 -24.835938 13.207031 -24.835938 C 17.859375 -24.835938 20.257812 -20.785156 21.160156 -16.921875 L 21.761719 -16.921875 L 21.761719 -24.648438 L 21.308594 -24.648438 C 20.632812 -23.859375 19.132812 -23.710938 17.933594 -24.386719 C 16.808594 -25.023438 15.269531 -25.660156 13.28125 -25.660156 C 8.929688 -25.660156 2.25 -21.308594 2.25 -12.417969 C 2.25 -4.988281 7.316406 0.488281 12.945312 0.488281 C 14.367188 0.488281 16.09375 0 17.332031 -0.601562 C 19.058594 -1.425781 21.085938 -1.164062 22.058594 -0.113281 L 22.511719 -0.113281 Z M 22.511719 -9.265625 "/></g></g><g style="fill:#ffffff;fill-opacity:1;"><g transform="translate(314.494053, 79.038265)"><path style="stroke:none" d="M 11.179688 -0.824219 L 8.179688 -0.824219 L 8.179688 -24.386719 L 11.179688 -24.386719 L 11.179688 -25.210938 L 1.351562 -25.210938 L 1.351562 -24.386719 L 4.351562 -24.386719 L 4.351562 -0.824219 L 1.351562 -0.824219 L 1.351562 0 L 11.179688 0 Z M 11.179688 -0.824219 "/></g></g><g style="fill:#ffffff;fill-opacity:1;"><g transform="translate(327.024189, 79.038265)"><path style="stroke:none" d="M 23.671875 -0.824219 L 20.710938 -0.824219 L 11.554688 -25.773438 L 11.144531 -25.773438 L 2.289062 -0.824219 L -0.675781 -0.824219 L -0.675781 0 L 5.816406 0 L 5.816406 -0.824219 L 3.1875 -0.824219 L 5.628906 -7.953125 L 14.21875 -7.953125 L 16.808594 -0.824219 L 13.804688 -0.824219 L 13.804688 0 L 23.671875 0 Z M 6.003906 -8.855469 L 9.828125 -19.621094 L 9.941406 -19.621094 L 13.917969 -8.855469 Z M 6.003906 -8.855469 "/></g></g><g style="fill:#ffffff;fill-opacity:1;"><g transform="translate(350.133644, 79.038265)"><path style="stroke:none" d="M 21.796875 -8.179688 L 21.234375 -8.179688 C 20.597656 -3 17.144531 -0.824219 12.945312 -0.824219 L 8.179688 -0.824219 L 8.179688 -24.386719 L 11.179688 -24.386719 L 11.179688 -25.210938 L 1.351562 -25.210938 L 1.351562 -24.386719 L 4.351562 -24.386719 L 4.351562 -0.824219 L 1.351562 -0.824219 L 1.351562 0 L 21.796875 0 Z M 21.796875 -8.179688 "/></g></g><path style=" stroke:none;fill-rule:nonzero;fill:#ffffff;fill-opacity:1;" d="M 58.097656 3.96875 C 56.941406 4.269531 55.609375 4.910156 55.136719 5.382812 C 54.410156 6.15625 54.367188 6.371094 54.878906 7.183594 C 55.394531 8.042969 55.265625 8.214844 53.464844 9.800781 C 52.390625 10.703125 51.234375 12.03125 50.976562 12.71875 C 50.460938 13.921875 50.332031 13.960938 48.015625 13.921875 C 45.828125 13.878906 45.570312 13.960938 45.570312 14.777344 C 45.570312 15.25 45.3125 15.980469 45.015625 16.363281 C 44.671875 16.75 44.414062 17.738281 44.414062 18.597656 C 44.414062 20.3125 43.984375 20.484375 43.039062 19.152344 C 42.398438 18.253906 42.441406 18.125 43.640625 17.179688 C 45.054688 16.066406 45.097656 14.820312 43.726562 13.75 C 42.78125 13.019531 40.421875 13.105469 39.78125 13.878906 C 38.707031 15.164062 37.292969 14.304688 37.121094 12.203125 C 37.078125 11.601562 36.90625 11.089844 36.734375 11.089844 C 36.261719 11.089844 35.148438 12.546875 34.675781 13.792969 C 34.417969 14.433594 33.902344 15.078125 33.558594 15.25 C 32.617188 15.59375 30.769531 14.691406 30.769531 13.878906 C 30.769531 12.675781 29.613281 13.234375 29.226562 14.605469 C 28.925781 15.59375 28.199219 16.449219 26.78125 17.351562 C 24.121094 19.109375 22.835938 20.3125 21.289062 22.542969 C 20.476562 23.699219 19.617188 24.429688 18.800781 24.601562 C 16.484375 25.117188 13.613281 29.234375 13.613281 31.980469 C 13.613281 32.96875 12.839844 32.582031 12.582031 31.421875 C 12.28125 30.308594 10.523438 28.25 9.835938 28.25 C 9.621094 28.25 9.449219 30.179688 9.492188 32.582031 C 9.535156 36.65625 9.578125 36.957031 10.609375 37.773438 C 11.425781 38.414062 12.109375 38.585938 13.484375 38.414062 L 15.285156 38.242188 L 14.597656 39.789062 C 13.613281 42.019531 13.699219 47.125 14.8125 50.210938 L 15.714844 52.65625 L 14.597656 52.785156 C 13.996094 52.871094 13.3125 53.257812 13.140625 53.644531 C 12.925781 54.074219 12.582031 54.757812 12.410156 55.144531 C 11.894531 56.175781 11.253906 56.261719 10.4375 55.488281 C 9.492188 54.503906 9.578125 54.03125 10.824219 53.730469 C 11.425781 53.601562 12.195312 52.914062 12.582031 52.230469 C 13.183594 51.027344 13.140625 50.898438 12.152344 49.914062 C 10.910156 48.667969 10.179688 48.582031 8.464844 49.484375 C 6.660156 50.425781 5.890625 51.757812 5.890625 53.988281 C 5.890625 57.203125 8.464844 60.421875 10.996094 60.421875 C 11.59375 60.421875 11.851562 60.851562 12.066406 62.179688 C 12.410156 64.410156 13.953125 66 15.800781 66 C 17 66 17.128906 65.914062 16.527344 65.441406 C 14.46875 63.855469 16.144531 60.636719 19.316406 60.121094 C 20.777344 59.90625 21.117188 60.035156 22.363281 61.324219 C 23.09375 62.136719 24.980469 63.941406 26.4375 65.3125 C 27.941406 66.726562 29.527344 68.488281 29.957031 69.171875 C 30.855469 70.632812 31.070312 74.105469 30.34375 75.4375 C 29.957031 76.125 30 76.210938 30.558594 76.039062 C 31.972656 75.480469 32.960938 72.5625 33.003906 68.960938 L 33.003906 65.570312 L 34.246094 66.898438 C 35.617188 68.359375 36.820312 68.316406 38.191406 66.769531 C 39.265625 65.527344 39.179688 61.753906 38.0625 60.335938 C 37.25 59.265625 37.25 59.222656 38.0625 57.503906 C 40.210938 53.085938 37.765625 47.550781 33.6875 47.550781 C 32.058594 47.550781 30.8125 48.753906 30.300781 50.8125 C 30.042969 51.84375 29.613281 52.699219 29.398438 52.699219 C 29.140625 52.699219 28.410156 53.171875 27.683594 53.773438 C 26.179688 55.015625 23.308594 55.230469 21.375 54.203125 C 18.671875 52.828125 17.042969 46.394531 18.589844 43.046875 C 19.359375 41.332031 19.359375 41.332031 19.53125 42.535156 C 19.617188 43.21875 19.445312 44.035156 19.144531 44.378906 C 18.289062 45.40625 20.90625 45.148438 22.0625 44.078125 L 23.007812 43.132812 L 23.476562 44.292969 C 24.078125 45.921875 24.035156 49.097656 23.308594 51.84375 C 22.964844 53.128906 22.75 54.289062 22.835938 54.332031 C 23.136719 54.632812 26.867188 50.898438 27.125 50.082031 C 27.511719 48.96875 28.113281 49.054688 28.28125 50.210938 C 28.410156 51.199219 28.410156 51.199219 29.183594 50.082031 C 30.472656 48.152344 30.558594 45.449219 29.398438 42.492188 L 28.324219 39.875 L 30.300781 40.132812 C 31.929688 40.304688 32.402344 40.21875 33.085938 39.445312 C 33.558594 38.929688 33.6875 38.542969 33.429688 38.542969 C 32.746094 38.542969 31.628906 37.300781 31.628906 36.527344 C 31.628906 35.96875 31.84375 36.011719 32.660156 36.785156 C 33.214844 37.300781 34.203125 37.859375 34.847656 38.027344 L 36.046875 38.371094 L 35.019531 39.53125 C 34.460938 40.175781 33.214844 41.03125 32.316406 41.503906 C 30.640625 42.277344 30.640625 42.320312 31.628906 42.832031 C 33.816406 43.992188 36.390625 43.304688 40.292969 40.601562 C 40.679688 40.304688 41.152344 40.21875 41.324219 40.386719 C 41.710938 40.773438 40.679688 41.976562 39.566406 42.40625 C 38.878906 42.707031 39.007812 42.789062 40.210938 42.789062 C 41.023438 42.832031 42.226562 42.578125 42.867188 42.234375 C 43.511719 41.890625 44.671875 41.632812 45.441406 41.632812 C 46.214844 41.675781 47.160156 41.589844 47.5 41.503906 C 47.929688 41.375 48.1875 41.71875 48.273438 42.492188 C 48.402344 43.691406 48.359375 43.691406 46.042969 43.691406 L 43.640625 43.691406 L 43.640625 57.546875 C 43.640625 73.121094 43.941406 75.480469 46.730469 80.714844 C 49.390625 85.734375 55.824219 91.480469 61.53125 93.925781 L 63.460938 94.742188 L 66.550781 93.238281 C 72.8125 90.195312 77.789062 85.476562 80.492188 79.898438 C 82.851562 75.136719 83.109375 73.207031 83.109375 57.71875 L 83.109375 43.691406 L 63.632812 43.691406 L 65.691406 42.40625 L 67.707031 41.117188 L 70.753906 42.191406 C 73.5 43.175781 74.183594 43.261719 77.488281 43.003906 C 79.503906 42.832031 81.261719 42.578125 81.390625 42.363281 C 81.519531 42.191406 82.421875 42.234375 83.367188 42.492188 C 84.351562 42.746094 85.511719 42.832031 85.9375 42.664062 C 86.667969 42.363281 86.582031 42.277344 85.382812 41.761719 C 84.609375 41.417969 83.964844 40.859375 83.964844 40.472656 C 83.964844 39.960938 84.480469 40.089844 86.539062 41.160156 C 88.726562 42.320312 89.5 42.492188 91.300781 42.320312 C 92.503906 42.191406 93.789062 41.804688 94.132812 41.417969 C 94.734375 40.816406 94.648438 40.730469 93.101562 40.304688 C 92.160156 40.046875 90.828125 39.316406 90.144531 38.714844 L 88.941406 37.558594 L 89.972656 37.171875 C 90.574219 36.957031 91.558594 36.3125 92.160156 35.710938 L 93.273438 34.640625 L 93.058594 35.753906 C 92.976562 36.398438 92.503906 37.042969 92.03125 37.214844 C 91.214844 37.515625 91.214844 37.515625 92.074219 38.285156 C 92.933594 39.058594 94.347656 39.101562 96.148438 38.328125 C 96.835938 38.027344 96.921875 38.113281 96.664062 38.800781 C 95.164062 42.535156 95.417969 46.265625 97.265625 48.496094 L 98.078125 49.484375 L 98.121094 48.195312 L 98.121094 46.910156 L 99.453125 48.539062 C 100.480469 49.785156 104.128906 52.316406 104.128906 51.757812 C 104.128906 51.671875 103.742188 50.597656 103.269531 49.355469 C 102.242188 46.695312 101.769531 42.449219 102.328125 41.589844 C 102.667969 41.117188 102.925781 41.117188 103.742188 41.71875 C 104.644531 42.320312 106.703125 42.707031 106.703125 42.234375 C 106.703125 42.148438 106.402344 41.546875 106.101562 40.859375 C 105.414062 39.617188 105.585938 38.757812 106.359375 39.230469 C 107.175781 39.746094 107.988281 42.363281 107.988281 44.421875 C 107.988281 47.46875 107.21875 49.699219 105.628906 51.285156 C 104.429688 52.484375 103.914062 52.699219 102.070312 52.699219 C 100.695312 52.699219 99.625 52.441406 98.9375 51.929688 C 98.378906 51.5 97.566406 51.027344 97.179688 50.855469 C 96.75 50.726562 96.40625 50.167969 96.40625 49.699219 C 96.40625 48.367188 94.132812 46.265625 92.761719 46.265625 C 90.871094 46.265625 88.382812 49.054688 88.042969 51.585938 C 87.742188 53.34375 87.871094 53.945312 88.984375 56.089844 C 90.144531 58.320312 90.230469 58.707031 89.714844 59.605469 C 88.855469 61.152344 88.984375 63.855469 89.972656 65.484375 C 90.742188 66.726562 91.042969 66.898438 92.460938 66.769531 C 93.746094 66.6875 94.175781 66.386719 94.691406 65.355469 L 95.292969 64.070312 L 95.632812 67.027344 C 96.019531 70.289062 97.308594 73.035156 98.9375 74.105469 L 100.011719 74.792969 L 99.195312 73.550781 C 98.121094 71.917969 98.164062 68.832031 99.28125 66.644531 C 99.796875 65.699219 101.210938 63.769531 102.5 62.308594 C 103.785156 60.894531 105.285156 59.09375 105.800781 58.320312 C 106.746094 57.035156 107.003906 56.90625 108.503906 57.121094 C 111.378906 57.503906 113.222656 59.777344 112.109375 61.496094 C 111.207031 62.867188 111.25 62.910156 112.492188 62.652344 C 114.167969 62.351562 115.710938 60.207031 115.710938 58.234375 C 115.710938 56.691406 115.839844 56.519531 117.039062 56.261719 C 118.972656 55.875 120.515625 53.601562 120.773438 50.726562 C 120.988281 47.980469 120.386719 46.480469 118.628906 45.578125 C 116.183594 44.335938 113.566406 45.277344 113.566406 47.425781 C 113.566406 48.539062 114.851562 49.699219 116.097656 49.699219 C 117.511719 49.699219 117.167969 51.585938 115.710938 51.757812 C 114.894531 51.84375 114.46875 51.542969 113.910156 50.554688 C 113.394531 49.613281 112.878906 49.269531 112.023438 49.269531 C 111.121094 49.269531 110.949219 49.097656 111.207031 48.496094 C 111.335938 48.109375 111.59375 46.09375 111.722656 44.078125 C 111.980469 40.21875 111.550781 37.984375 110.089844 35.925781 L 109.320312 34.8125 L 111.164062 34.855469 C 114.636719 34.941406 115.625 33.011719 114.59375 28.121094 C 114.253906 26.488281 114.082031 24.988281 114.253906 24.773438 C 114.382812 24.558594 114.253906 24.386719 114.039062 24.386719 C 113.136719 24.386719 111.894531 26.058594 111.421875 27.863281 L 110.90625 29.664062 L 109.875 27.132812 C 109.320312 25.761719 108.847656 24.558594 108.847656 24.515625 C 108.847656 24 105.070312 21.8125 104.214844 21.8125 C 103.484375 21.8125 102.5 21.085938 101.039062 19.496094 C 99.539062 17.824219 98.121094 16.835938 96.234375 16.023438 C 94.089844 15.121094 93.359375 14.5625 92.847656 13.40625 C 92.117188 11.945312 91.257812 11.433594 91.257812 12.503906 C 91.257812 14.175781 88.085938 15.207031 87.65625 13.75 C 87.484375 13.320312 86.796875 12.417969 86.109375 11.730469 L 84.824219 10.488281 L 84.824219 11.816406 C 84.824219 12.589844 84.523438 13.492188 84.136719 13.878906 C 83.492188 14.476562 83.367188 14.476562 82.421875 13.878906 C 80.277344 12.503906 77.53125 13.707031 77.53125 16.066406 C 77.53125 16.878906 77.832031 17.265625 78.816406 17.652344 C 80.320312 18.210938 80.449219 18.808594 79.246094 19.882812 C 78.433594 20.65625 78.390625 20.613281 78.390625 19.582031 C 78.390625 18.167969 76.972656 16.40625 75.601562 16.066406 C 74.742188 15.851562 74.527344 15.550781 74.527344 14.347656 C 74.527344 11.816406 73.371094 8.902344 71.652344 7.140625 C 68.78125 4.226562 62.472656 2.722656 58.097656 3.96875 Z M 63.160156 4.609375 C 63.847656 4.910156 63.632812 5.039062 62.085938 5.296875 C 61.058594 5.46875 59.34375 5.984375 58.355469 6.414062 C 56.726562 7.097656 56.46875 7.140625 56.210938 6.542969 C 55.910156 5.726562 56.082031 5.554688 58.097656 4.867188 C 59.898438 4.183594 61.871094 4.097656 63.160156 4.609375 Z M 68.050781 6.96875 C 69.722656 7.871094 71.78125 10.273438 72.382812 12.160156 C 73.113281 14.390625 72.726562 19.625 71.566406 23.402344 C 70.710938 26.101562 70.667969 26.789062 71.054688 28.675781 C 71.3125 29.878906 71.523438 31.035156 71.523438 31.25 C 71.523438 31.464844 70.410156 32.238281 69.035156 32.925781 C 65.90625 34.511719 65.304688 35.242188 65.304688 37.429688 C 65.304688 38.929688 65.175781 39.1875 64.359375 39.316406 C 63.761719 39.402344 63.375 39.230469 63.332031 38.886719 C 63.289062 38.585938 63.246094 38.113281 63.160156 37.902344 C 63.117188 37.644531 63.03125 37.300781 63.03125 37.042969 C 62.988281 36.828125 62.085938 37.472656 61.101562 38.457031 C 59.085938 40.429688 56.339844 41.546875 53.464844 41.546875 C 52.09375 41.546875 51.707031 41.332031 51.191406 40.34375 C 49.5625 37.171875 50.117188 33.824219 52.5625 32.453125 C 54.453125 31.335938 55.007812 32.195312 54.621094 35.539062 L 54.324219 38.15625 L 55.953125 37.429688 C 56.855469 37.042969 58.699219 36.398438 60.027344 36.011719 C 61.402344 35.625 62.730469 35.070312 63.03125 34.769531 C 63.804688 33.996094 63.03125 34.082031 59.300781 35.285156 C 55.695312 36.441406 55.867188 36.527344 55.480469 33.351562 L 55.265625 31.378906 L 57.710938 30.820312 C 65.820312 29.019531 70.066406 25.71875 71.355469 20.226562 C 72.597656 14.949219 71.738281 11.089844 68.867188 8.945312 C 67.792969 8.128906 66.761719 7.871094 64.617188 7.742188 C 61.914062 7.570312 61.703125 7.65625 60.328125 8.902344 L 58.871094 10.230469 L 59.898438 11.089844 C 60.585938 11.6875 60.84375 12.246094 60.671875 12.890625 C 60.5 13.449219 60.757812 14.21875 61.273438 14.863281 C 62.34375 16.238281 62.300781 16.578125 61.058594 17.136719 C 60.285156 17.523438 59.300781 17.394531 56.683594 16.664062 C 52.863281 15.636719 52.222656 15.25 52.222656 13.921875 C 52.222656 12.417969 54.238281 9.800781 55.4375 9.800781 C 56.46875 9.800781 56.855469 9.5 57.925781 7.957031 C 59.257812 6.027344 65.089844 5.46875 68.050781 6.96875 Z M 67.964844 9.628906 C 69.550781 10.617188 70.367188 12.761719 70.582031 16.363281 C 70.753906 19.410156 70.667969 19.882812 69.421875 22.457031 C 67.878906 25.546875 65.777344 27.476562 62.601562 28.675781 C 57.96875 30.4375 53.507812 30.136719 51.835938 27.949219 C 51.320312 27.347656 50.933594 26.703125 50.933594 26.53125 C 50.933594 26.359375 52.09375 26.402344 53.550781 26.617188 C 56.769531 27.132812 59.257812 26.617188 59.425781 25.460938 C 59.769531 23.058594 59.984375 22.757812 61.660156 22.070312 C 62.601562 21.683594 64.402344 21.382812 65.648438 21.382812 C 66.890625 21.382812 68.136719 21.167969 68.4375 20.871094 C 69.121094 20.183594 69.121094 14.863281 68.4375 14.175781 C 67.621094 13.363281 66.550781 13.578125 65.175781 14.734375 C 64.445312 15.335938 63.675781 15.808594 63.417969 15.808594 C 62.6875 15.808594 62 14.089844 62.300781 12.933594 C 62.472656 12.117188 62.300781 11.558594 61.660156 10.875 C 60.671875 9.800781 60.84375 9.542969 62.859375 8.902344 C 64.273438 8.472656 66.71875 8.816406 67.964844 9.628906 Z M 87.097656 16.023438 C 87.613281 15.679688 88.511719 15.378906 89.113281 15.378906 C 89.714844 15.378906 90.488281 15.164062 90.828125 14.949219 C 91.300781 14.648438 91.515625 14.777344 91.6875 15.464844 C 91.859375 16.152344 92.546875 16.492188 94.734375 17.050781 C 98.121094 17.910156 100.308594 19.453125 101.425781 21.726562 C 102.15625 23.316406 102.285156 23.402344 103.699219 23.230469 C 105.84375 22.929688 107.601562 24.472656 108.546875 27.476562 C 108.933594 28.71875 109.75 30.308594 110.304688 31.035156 C 111.207031 32.152344 111.421875 32.238281 112.066406 31.679688 C 112.578125 31.25 112.707031 30.695312 112.535156 29.792969 C 112.152344 27.777344 112.921875 26.960938 113.523438 28.71875 C 114.167969 30.609375 114.125 31.722656 113.308594 32.882812 C 112.535156 33.996094 111.164062 34.082031 109.789062 33.140625 C 108.546875 32.28125 107.558594 32.96875 107.558594 34.726562 C 107.558594 36.140625 107.304688 36.269531 106.230469 35.285156 C 105.542969 34.683594 105.457031 34.683594 104.984375 35.582031 C 104.644531 36.183594 104.558594 37.429688 104.730469 39.058594 C 104.945312 41.417969 104.945312 41.546875 104.171875 41.160156 C 103.742188 40.902344 103.140625 40.089844 102.796875 39.316406 L 102.242188 37.941406 L 101.683594 39.230469 C 101.039062 40.730469 100.953125 45.75 101.554688 47.296875 C 101.769531 47.894531 101.855469 48.410156 101.726562 48.410156 C 100.867188 48.410156 99.667969 47.210938 98.980469 45.707031 C 98.25 44.078125 98.164062 43.992188 97.863281 44.851562 C 97.738281 45.40625 97.4375 45.835938 97.222656 45.835938 C 96.40625 45.835938 96.363281 43.5625 97.09375 40.515625 C 97.523438 38.714844 97.738281 37.128906 97.566406 37 C 97.394531 36.828125 96.792969 36.914062 96.191406 37.171875 C 94.820312 37.816406 93.703125 37.816406 94.046875 37.214844 C 94.21875 36.957031 94.648438 35.582031 94.949219 34.125 C 95.292969 32.667969 96.148438 30.652344 96.835938 29.664062 C 97.566406 28.675781 98.121094 27.777344 98.121094 27.648438 C 98.121094 27.476562 97.394531 27.519531 96.492188 27.648438 C 94.734375 27.90625 93.402344 27.132812 93.402344 25.847656 C 93.402344 25.160156 94.089844 25.03125 94.476562 25.675781 C 94.605469 25.890625 95.207031 26.101562 95.761719 26.101562 C 97.863281 26.101562 98.378906 22.714844 96.621094 20.570312 C 95.164062 18.894531 93.015625 18.210938 90.015625 18.511719 C 87.570312 18.765625 86.839844 19.195312 80.792969 23.914062 C 78.988281 25.289062 77.875 25.847656 76.414062 26.015625 C 75.128906 26.144531 74.65625 26.359375 75.042969 26.574219 C 76.371094 27.476562 79.503906 26.101562 83.324219 23.015625 C 85.9375 20.914062 87.699219 20.398438 88.640625 21.511719 C 89.070312 22.070312 87.957031 23.1875 85.253906 24.859375 C 84.695312 25.203125 84.738281 25.332031 85.425781 25.890625 C 86.238281 26.488281 86.238281 26.53125 85.425781 27.433594 C 84.824219 28.121094 84.308594 28.292969 83.195312 28.078125 C 81.21875 27.777344 80.535156 28.164062 80.535156 29.535156 C 80.535156 31.378906 82.679688 31.765625 86.882812 30.652344 C 89.113281 30.09375 89.671875 30.265625 88.46875 31.25 C 87.441406 32.109375 88.210938 32.625 89.929688 32.324219 C 91.472656 32.023438 91.472656 32.023438 90.65625 32.925781 C 89.886719 33.78125 89.886719 33.824219 90.828125 34.167969 L 91.816406 34.511719 L 90.613281 35.457031 C 89.972656 35.96875 88.855469 36.398438 88.210938 36.398438 C 87.527344 36.398438 86.96875 36.570312 86.96875 36.742188 C 86.96875 37.171875 89.371094 39.445312 90.828125 40.386719 L 91.859375 41.117188 L 90.101562 41.117188 C 87.3125 41.117188 86.238281 40.472656 82.292969 36.613281 C 80.019531 34.425781 77.875 32.753906 76.757812 32.324219 C 74.183594 31.292969 72.8125 29.492188 72.8125 27.175781 C 72.8125 24.429688 73.285156 22.628906 74.054688 22.371094 C 75.386719 21.898438 76.242188 20.828125 76.242188 19.582031 C 76.242188 18.851562 76.414062 18.425781 76.671875 18.597656 C 76.929688 18.726562 77.101562 19.496094 77.101562 20.3125 C 77.101562 22.371094 77.746094 22.542969 79.460938 20.828125 C 80.535156 19.753906 80.964844 18.9375 80.964844 18.039062 C 80.964844 16.578125 80.191406 15.808594 79.632812 16.707031 C 79.332031 17.179688 79.160156 17.179688 78.730469 16.75 C 78.046875 16.066406 78.773438 14.777344 80.019531 14.605469 C 81.089844 14.433594 82.25 15.980469 82.25 17.609375 C 82.25 18.894531 82.851562 19.238281 83.238281 18.210938 C 83.367188 17.867188 83.28125 17.480469 82.980469 17.394531 C 82.679688 17.308594 83.195312 16.535156 84.179688 15.550781 L 85.894531 13.878906 L 86.023438 15.25 C 86.152344 16.621094 86.195312 16.664062 87.097656 16.023438 Z M 38.363281 16.238281 C 38.535156 16.238281 38.964844 16.40625 39.308594 16.621094 C 39.824219 16.964844 39.824219 17.179688 39.4375 17.652344 C 39.007812 18.167969 39.050781 18.339844 39.566406 18.554688 C 40.082031 18.726562 40.210938 18.425781 40.210938 17.09375 C 40.210938 15.765625 40.421875 15.25 41.324219 14.691406 C 42.355469 14.003906 42.441406 14.003906 43.210938 14.777344 C 44.199219 15.765625 43.726562 17.179688 42.652344 16.324219 C 41.882812 15.679688 41.496094 16.066406 41.496094 17.609375 C 41.496094 19.109375 43.554688 21.382812 44.929688 21.382812 C 45.742188 21.382812 45.785156 21.210938 45.527344 19.753906 C 45.140625 17.652344 45.699219 18.253906 46.730469 21.042969 C 48.058594 24.773438 48.058594 24.773438 47.289062 25.074219 C 46.128906 25.546875 43.683594 24.558594 40.039062 22.285156 C 34.375 18.683594 30.171875 18.46875 27.039062 21.597656 C 25.921875 22.714844 25.625 23.359375 25.625 24.730469 C 25.625 27.476562 27.425781 28.675781 29.140625 27.089844 C 29.871094 26.445312 29.914062 26.445312 29.914062 27.476562 C 29.914062 29.019531 28.925781 29.707031 27.125 29.40625 C 26.308594 29.277344 25.625 29.277344 25.625 29.40625 C 25.625 29.535156 26.394531 30.480469 27.296875 31.550781 C 28.242188 32.582031 29.355469 34.46875 29.742188 35.667969 C 30.128906 36.914062 30.683594 38.15625 30.941406 38.5 C 31.328125 39.015625 31.113281 39.058594 29.398438 38.84375 C 28.242188 38.671875 27.339844 38.671875 27.339844 38.84375 C 27.339844 39.015625 27.855469 40.730469 28.496094 42.664062 C 29.183594 44.765625 29.484375 46.480469 29.3125 46.953125 C 29.011719 47.722656 28.96875 47.722656 28.582031 46.996094 C 27.984375 45.964844 27.46875 46.09375 27.167969 47.382812 C 26.824219 48.753906 25.667969 50.554688 25.152344 50.554688 C 24.9375 50.554688 24.765625 49.226562 24.765625 47.636719 C 24.765625 44.765625 23.734375 40.6875 23.050781 40.6875 C 22.835938 40.6875 22.578125 41.289062 22.40625 41.976562 C 22.234375 42.707031 21.761719 43.476562 21.289062 43.691406 C 20.519531 44.121094 20.476562 43.992188 20.476562 41.632812 C 20.476562 40.132812 20.21875 38.800781 19.875 38.285156 C 19.230469 37.472656 19.230469 37.472656 18.589844 38.328125 C 17.988281 39.058594 17.859375 39.101562 17.472656 38.542969 C 17.257812 38.199219 17.042969 37.558594 17.042969 37.128906 C 17.042969 36.097656 15.886719 35.710938 14.984375 36.484375 C 13.226562 38.027344 11.765625 37.816406 10.78125 35.925781 C 10.179688 34.683594 10.351562 31.25 11.039062 31.25 C 11.464844 31.25 11.894531 32.839844 11.894531 34.339844 C 11.894531 35.285156 12.109375 35.539062 12.796875 35.539062 C 13.785156 35.539062 15.070312 33.054688 15.542969 30.050781 C 15.972656 27.347656 17.386719 25.890625 19.574219 25.890625 C 20.734375 25.890625 21.332031 25.71875 21.332031 25.332031 C 21.332031 24.214844 23.09375 21.382812 24.464844 20.355469 C 25.238281 19.753906 26.738281 18.9375 27.769531 18.597656 C 30.085938 17.78125 30.769531 17.222656 30.472656 16.363281 C 30.257812 15.851562 30.429688 15.765625 31.242188 16.066406 C 31.800781 16.238281 32.703125 16.363281 33.257812 16.324219 C 33.816406 16.28125 34.632812 16.449219 35.105469 16.664062 C 35.832031 17.09375 35.917969 16.964844 35.917969 15.550781 L 35.917969 13.960938 L 36.992188 15.121094 C 37.550781 15.722656 38.191406 16.238281 38.363281 16.238281 Z M 49.003906 15.378906 C 49.691406 15.894531 54.792969 17.4375 57.539062 17.953125 C 60.800781 18.597656 62.515625 18.253906 64.660156 16.449219 C 66.121094 15.207031 66.59375 15.035156 67.277344 15.421875 C 68.007812 15.765625 68.09375 16.238281 68.007812 18.082031 L 67.878906 20.3125 L 65.949219 20.226562 C 62.472656 20.054688 59.085938 21.726562 59.085938 23.699219 C 59.085938 25.546875 58.484375 25.804688 55.480469 25.546875 C 52.605469 25.289062 49.988281 24.214844 48.703125 22.800781 C 47.886719 21.941406 46.945312 19.753906 46.472656 17.824219 L 46.171875 16.621094 L 48.273438 17.695312 C 53.164062 20.183594 59.769531 20.957031 62.945312 19.496094 C 63.761719 19.109375 64.0625 18.894531 63.589844 19.066406 C 60.15625 20.097656 53.636719 19.539062 50.417969 17.910156 C 48.832031 17.09375 47.074219 15.507812 47.074219 14.863281 C 47.074219 14.519531 48.230469 14.863281 49.003906 15.378906 Z M 75.300781 19.539062 C 75.386719 20.011719 75.128906 20.65625 74.742188 20.957031 C 74.183594 21.425781 74.097656 21.296875 74.097656 19.882812 C 74.097656 18.210938 75.042969 17.910156 75.300781 19.539062 Z M 95.417969 21.128906 C 96.40625 22.285156 96.75 24.558594 96.019531 24.988281 C 95.503906 25.332031 94.5625 24.085938 94.90625 23.53125 C 95.035156 23.316406 94.820312 23.101562 94.304688 23.101562 C 93.359375 23.101562 92.117188 24.601562 92.117188 25.804688 C 92.117188 27.132812 93.359375 29.0625 94.433594 29.363281 L 95.460938 29.621094 L 94.390625 31.507812 C 93.144531 33.695312 92.246094 34.46875 92.71875 32.925781 C 93.574219 30.136719 93.574219 30.09375 92.203125 30.308594 C 91.042969 30.480469 90.914062 30.394531 91.128906 29.578125 C 91.429688 28.460938 91.515625 28.460938 87.742188 29.535156 C 83.964844 30.566406 81.820312 30.652344 81.820312 29.75 C 81.820312 29.277344 82.292969 29.105469 83.449219 29.105469 C 85.382812 29.105469 87.65625 27.777344 88.339844 26.273438 C 88.769531 25.375 88.726562 25.117188 88.210938 24.773438 C 87.699219 24.429688 87.699219 24.34375 88.210938 24 C 88.554688 23.785156 89.113281 23.699219 89.457031 23.828125 C 89.972656 24.042969 90.058594 23.785156 89.886719 22.628906 C 89.757812 21.8125 89.5 20.828125 89.328125 20.355469 C 88.984375 19.625 89.15625 19.582031 91.6875 19.753906 C 93.960938 19.925781 94.5625 20.140625 95.417969 21.128906 Z M 33.558594 20.957031 C 33.730469 21.210938 33.601562 21.683594 33.34375 22.027344 C 32.488281 23.058594 33.003906 24.601562 34.160156 24.601562 C 34.71875 24.601562 35.277344 24.859375 35.363281 25.117188 C 35.488281 25.417969 35.363281 25.675781 35.105469 25.675781 C 34.375 25.675781 35.703125 28.078125 36.648438 28.460938 C 37.078125 28.675781 38.492188 28.933594 39.78125 29.0625 C 41.066406 29.191406 42.097656 29.492188 42.011719 29.75 C 41.882812 30.222656 36.949219 30.308594 34.546875 29.878906 C 33.003906 29.621094 32.917969 29.664062 32.917969 30.695312 C 32.917969 31.636719 32.789062 31.722656 31.84375 31.507812 C 30.601562 31.207031 30.515625 31.636719 31.414062 33.394531 C 32.015625 34.554688 32.015625 34.683594 31.414062 34.683594 C 31.070312 34.683594 30.769531 34.511719 30.769531 34.296875 C 30.769531 34.082031 30.300781 33.308594 29.699219 32.625 L 28.667969 31.378906 L 29.914062 30.4375 C 30.984375 29.664062 31.199219 29.191406 31.199219 27.820312 C 31.199219 26.660156 30.898438 25.804688 30.34375 25.246094 C 29.183594 24.085938 28.199219 24.128906 28.324219 25.332031 C 28.367188 25.972656 28.199219 26.316406 27.769531 26.316406 C 26.738281 26.316406 26.738281 23.871094 27.769531 22.542969 C 29.011719 20.957031 32.917969 19.882812 33.558594 20.957031 Z M 40.507812 23.53125 C 42.570312 24.6875 44.929688 25.761719 45.742188 25.890625 C 46.601562 26.058594 47.714844 26.230469 48.230469 26.359375 C 48.832031 26.445312 49.820312 27.476562 50.71875 28.933594 C 51.578125 30.265625 52.222656 31.378906 52.136719 31.421875 C 50.460938 32.410156 48.746094 34.125 48.488281 34.984375 C 48.359375 35.625 47.074219 37.214844 45.65625 38.5 C 42.054688 41.847656 41.882812 41.933594 42.570312 39.703125 C 43.46875 36.65625 42.910156 36.570312 39.996094 39.359375 C 37.550781 41.71875 37.078125 41.976562 35.53125 41.976562 L 33.730469 41.976562 L 35.148438 40.730469 C 35.917969 40.046875 36.90625 38.886719 37.335938 38.15625 L 38.105469 36.828125 L 36.433594 36.828125 C 35.53125 36.828125 34.417969 36.527344 33.945312 36.183594 C 33.171875 35.582031 33.171875 35.5 33.902344 35.070312 C 34.589844 34.640625 34.589844 34.554688 33.6875 33.824219 L 32.703125 33.011719 L 34.589844 32.96875 L 36.476562 32.96875 L 35.574219 31.980469 L 34.675781 31.035156 L 37.976562 31.164062 C 41.753906 31.335938 43.640625 30.820312 43.640625 29.578125 C 43.640625 28.292969 42.652344 27.777344 40.59375 28.078125 C 39.09375 28.292969 38.535156 28.164062 38.0625 27.605469 C 37.550781 26.960938 37.550781 26.789062 38.277344 26.273438 C 38.707031 25.933594 39.007812 25.632812 38.878906 25.589844 C 38.792969 25.503906 38.019531 25.117188 37.207031 24.6875 C 34.503906 23.316406 33.988281 22.800781 34.632812 22.027344 C 35.488281 21 36.519531 21.253906 40.507812 23.53125 Z M 76.160156 33.996094 C 76.714844 34.554688 76.585938 34.640625 75.128906 34.941406 C 72.855469 35.328125 71.226562 36.226562 69.078125 38.15625 C 66.804688 40.261719 66.035156 40.304688 67.234375 38.328125 C 68.007812 37.085938 68.09375 36.699219 67.664062 36.183594 C 66.976562 35.371094 67.707031 34.382812 69.59375 33.523438 C 71.183594 32.796875 75.257812 33.097656 76.160156 33.996094 Z M 80.019531 36.054688 C 80.707031 36.742188 80.664062 38.199219 79.890625 39.230469 C 79.546875 39.660156 79.246094 40.386719 79.246094 40.773438 C 79.246094 41.890625 78.644531 41.71875 76.929688 40.261719 C 75.042969 38.585938 74.269531 36.570312 75.300781 35.96875 C 76.328125 35.414062 79.417969 35.457031 80.019531 36.054688 Z M 109.707031 37.773438 C 110.304688 39.101562 110.5625 40.601562 110.5625 43.175781 C 110.5625 49.3125 108.632812 53.515625 102.882812 59.648438 C 101.210938 61.453125 99.152344 64.027344 98.378906 65.3125 C 97.050781 67.5 96.921875 67.628906 96.664062 66.726562 C 96.535156 66.171875 96.621094 65.054688 96.835938 64.242188 C 97.09375 63.425781 97.265625 62.78125 97.265625 62.738281 C 97.265625 62.695312 96.320312 62.867188 95.207031 63.082031 C 93.402344 63.46875 93.144531 63.640625 93.1875 64.582031 C 93.1875 66.042969 92.503906 66.214844 91.128906 65.140625 C 90.1875 64.410156 89.972656 63.855469 89.972656 62.351562 C 89.972656 60.851562 90.1875 60.292969 91.085938 59.605469 C 91.730469 59.09375 92.503906 58.707031 92.804688 58.707031 C 93.144531 58.707031 92.417969 57.761719 91.257812 56.648438 C 89.285156 54.71875 89.113281 54.417969 89.113281 52.527344 C 89.113281 50.855469 89.328125 50.253906 90.359375 49.226562 C 92.289062 47.339844 95.035156 47.808594 94.605469 49.996094 C 94.476562 50.640625 94.089844 50.726562 92.632812 50.640625 C 90.871094 50.511719 90.828125 50.554688 90.828125 51.757812 C 90.828125 53.386719 92.074219 54.929688 94.21875 55.875 C 96.449219 56.90625 97.265625 56.5625 97.265625 54.632812 C 97.265625 52.785156 97.949219 52.441406 99.667969 53.34375 C 101.382812 54.246094 102.753906 54.160156 104.984375 53 C 107.730469 51.628906 108.589844 49.699219 108.632812 44.980469 C 108.632812 42.148438 108.417969 40.902344 107.6875 39.316406 C 107.089844 37.941406 106.960938 37.386719 107.347656 37.515625 C 107.644531 37.644531 108.03125 37.34375 108.203125 36.871094 C 108.589844 35.625 108.761719 35.710938 109.707031 37.773438 Z M 72.8125 40.304688 L 73.714844 42.0625 L 72.296875 41.761719 C 71.523438 41.589844 70.410156 41.160156 69.894531 40.816406 C 68.910156 40.21875 68.910156 40.175781 69.636719 39.359375 C 70.796875 38.070312 71.824219 38.371094 72.8125 40.304688 Z M 82.035156 39.832031 C 82.464844 40.304688 82.679688 40.816406 82.550781 40.988281 C 82.207031 41.289062 80.535156 39.917969 80.535156 39.316406 C 80.535156 38.714844 81.21875 38.929688 82.035156 39.832031 Z M 17.859375 40.472656 C 18.460938 40.132812 18.460938 40.132812 17.6875 42.191406 C 16.828125 44.59375 16.914062 47.425781 17.902344 50.640625 C 18.800781 53.558594 19.832031 54.800781 22.105469 55.703125 C 23.820312 56.347656 26.695312 56.046875 27.769531 55.058594 C 28.882812 54.03125 29.914062 54.546875 29.914062 56.046875 C 29.914062 57.890625 30.726562 58.363281 32.402344 57.546875 C 34.332031 56.605469 35.917969 54.589844 35.917969 53.085938 C 35.917969 51.628906 35.105469 51.113281 33.816406 51.800781 C 32.660156 52.441406 31.414062 51.285156 32.058594 50.125 C 33.128906 48.152344 36.390625 49.054688 37.464844 51.671875 C 38.320312 53.730469 37.847656 55.703125 36.089844 57.804688 L 34.589844 59.519531 L 36.132812 60.164062 C 38.707031 61.238281 39.179688 64.796875 36.992188 66.257812 C 35.703125 67.070312 34.933594 66.644531 35.191406 65.3125 C 35.363281 64.324219 35.234375 64.285156 33.257812 64.285156 C 31.371094 64.285156 31.15625 64.367188 31.414062 65.011719 C 31.585938 65.441406 31.800781 66.644531 31.929688 67.714844 C 32.101562 69.429688 32.058594 69.558594 31.542969 68.746094 C 30.128906 66.472656 28.113281 64.410156 24.464844 61.453125 C 20.175781 57.933594 17.730469 54.757812 16.144531 50.640625 C 14.855469 47.253906 14.597656 43.089844 15.5 40.902344 C 16.1875 39.316406 16.269531 39.230469 16.828125 40.003906 C 17.171875 40.429688 17.601562 40.644531 17.859375 40.472656 Z M 46.859375 39.832031 C 46.730469 40.046875 46.171875 40.472656 45.65625 40.730469 C 44.757812 41.160156 44.757812 41.117188 45.742188 40.304688 C 46.816406 39.316406 47.289062 39.144531 46.859375 39.832031 Z M 62.515625 40.046875 C 62.816406 40.386719 63.460938 40.6875 63.976562 40.6875 C 64.875 40.730469 64.875 40.730469 63.847656 41.589844 C 63.246094 42.105469 62.515625 42.320312 62 42.191406 C 61.53125 42.019531 60.542969 42.320312 59.597656 42.917969 C 58.269531 43.734375 57.453125 43.90625 54.324219 43.90625 C 52.261719 43.90625 50.675781 43.734375 50.804688 43.519531 C 51.277344 42.746094 54.023438 41.976562 56.210938 41.976562 C 58.097656 41.976562 58.699219 41.761719 59.941406 40.6875 C 61.703125 39.230469 61.828125 39.1875 62.515625 40.046875 Z M 48.703125 46.351562 C 49.046875 46.695312 49.347656 46.695312 49.777344 46.308594 C 50.246094 45.964844 54.367188 45.835938 65.175781 45.921875 L 79.976562 46.050781 L 64.617188 63.210938 C 56.210938 72.648438 49.089844 80.414062 48.875 80.5 C 48.359375 80.671875 46.816406 76.980469 46 73.636719 C 45.527344 71.574219 45.355469 68.015625 45.355469 58.363281 L 45.355469 45.835938 L 46.773438 45.835938 C 47.542969 45.835938 48.402344 46.050781 48.703125 46.351562 Z M 118.757812 47.082031 C 119.613281 47.9375 120 48.796875 120 49.699219 C 120 51.585938 118.457031 54.375 117.082031 54.886719 C 114.765625 55.832031 114.636719 55.960938 114.765625 57.546875 C 114.851562 58.40625 114.679688 59.519531 114.382812 60.035156 C 113.910156 60.980469 113.867188 60.980469 113.351562 59.691406 C 112.707031 58.148438 109.960938 56.132812 108.546875 56.132812 C 107.988281 56.132812 107.558594 55.875 107.558594 55.53125 C 107.558594 54.675781 109.234375 52.699219 109.960938 52.699219 C 110.304688 52.699219 110.777344 52.1875 110.992188 51.585938 C 111.59375 50.082031 112.964844 50.339844 112.792969 51.929688 C 112.707031 52.871094 112.878906 53.085938 113.996094 53.34375 C 116.527344 53.902344 118.929688 51.242188 117.898438 49.011719 C 117.511719 48.109375 117.296875 47.980469 116.785156 48.410156 C 115.925781 49.097656 114.851562 48.625 114.851562 47.59375 C 114.851562 46.738281 115.882812 45.878906 116.914062 45.835938 C 117.253906 45.835938 118.070312 46.394531 118.757812 47.082031 Z M 81.304688 62.78125 C 81.175781 72.691406 81.089844 73.722656 80.148438 76.296875 C 78.6875 80.371094 75.730469 84.617188 72.296875 87.40625 C 69.464844 89.722656 64.617188 92.554688 63.460938 92.597656 C 62.730469 92.597656 58.871094 90.625 56.597656 89.078125 C 53.980469 87.277344 49.988281 83.203125 50.160156 82.515625 C 50.246094 82.171875 57.238281 74.148438 65.734375 64.625 L 81.175781 47.339844 L 81.304688 49.699219 C 81.390625 50.984375 81.390625 56.863281 81.304688 62.78125 Z M 11.425781 50.726562 C 12.28125 51.714844 11.507812 52.828125 10.136719 52.527344 C 8.636719 52.230469 8.121094 53.386719 8.980469 55.144531 C 9.835938 56.949219 11.464844 57.71875 13.097656 57.035156 C 14.253906 56.5625 14.382812 56.304688 14.167969 55.230469 C 13.867188 53.644531 14.8125 53.558594 16.101562 55.058594 C 16.613281 55.660156 17.300781 56.132812 17.644531 56.132812 C 18.203125 56.132812 20.046875 58.234375 20.046875 58.835938 C 20.046875 58.921875 19.488281 59.136719 18.800781 59.265625 C 17.214844 59.605469 14.941406 61.921875 14.597656 63.554688 C 14.339844 64.753906 14.296875 64.796875 13.742188 64.070312 C 13.441406 63.597656 13.183594 62.566406 13.183594 61.710938 C 13.183594 59.863281 12.582031 59.136719 10.996094 59.136719 C 10.222656 59.136719 9.40625 58.664062 8.507812 57.632812 C 7.003906 55.917969 6.535156 54.503906 6.917969 52.914062 C 7.519531 50.597656 10.222656 49.269531 11.425781 50.726562 Z M 94.5625 52.144531 C 95.164062 52.273438 95.503906 52.785156 95.632812 53.644531 C 95.933594 55.617188 94.820312 55.703125 93.101562 53.859375 C 91.429688 52.015625 91.257812 51.199219 92.675781 51.628906 C 93.1875 51.757812 94.046875 52.015625 94.5625 52.144531 Z M 33.988281 54.84375 C 32.574219 56.90625 31.628906 57.078125 31.628906 55.316406 C 31.628906 54.375 31.972656 53.859375 33.003906 53.171875 C 35.019531 51.929688 35.445312 52.699219 33.988281 54.84375 Z M 33.988281 54.84375 "/><path style=" stroke:none;fill-rule:nonzero;fill:#ffffff;fill-opacity:1;" d="M 65.5625 17.652344 C 65.304688 17.996094 65.21875 18.339844 65.347656 18.511719 C 65.777344 18.894531 66.804688 18.339844 66.804688 17.695312 C 66.804688 16.921875 66.207031 16.921875 65.5625 17.652344 Z M 65.5625 17.652344 "/><path style=" stroke:none;fill-rule:nonzero;fill:#ffffff;fill-opacity:1;" d="M 47.074219 47.980469 C 47.074219 48.195312 47.375 48.28125 47.714844 48.152344 C 48.273438 47.9375 48.359375 48.839844 48.359375 54.972656 C 48.359375 62.050781 48.1875 63.640625 47.457031 63.167969 C 47.246094 63.039062 47.074219 63.125 47.074219 63.339844 C 47.074219 63.554688 47.714844 63.898438 48.488281 64.070312 C 50.289062 64.496094 58.65625 64.496094 61.574219 64.070312 L 63.804688 63.726562 L 63.804688 57.375 C 63.804688 53.386719 63.976562 50.984375 64.230469 50.984375 C 64.488281 50.984375 64.660156 51.628906 64.660156 52.441406 C 64.660156 54.460938 65.046875 55.273438 65.992188 55.273438 C 67.0625 55.273438 67.019531 54.160156 65.949219 53.558594 C 65.390625 53.257812 65.089844 52.65625 65.089844 51.886719 C 65.089844 51.199219 64.789062 50.554688 64.445312 50.382812 C 64.105469 50.253906 63.804688 49.699219 63.804688 49.097656 C 63.804688 47.59375 61.058594 46.824219 60.542969 48.195312 C 60.371094 48.667969 59.597656 48.839844 57.839844 48.882812 C 56.167969 48.925781 55.738281 49.011719 56.511719 49.226562 C 57.195312 49.398438 57.582031 49.828125 57.582031 50.339844 C 57.582031 51.585938 53.765625 52.273438 52.734375 51.242188 C 52.136719 50.683594 52.136719 50.382812 52.5625 49.699219 C 53.035156 48.925781 52.992188 48.839844 51.75 48.839844 C 51.019531 48.839844 50.160156 48.539062 49.820312 48.195312 C 49.089844 47.46875 47.074219 47.296875 47.074219 47.980469 Z M 62.085938 52.144531 C 62.085938 57.847656 61.617188 63.46875 61.1875 63.167969 C 60.757812 62.910156 60.671875 48.710938 61.101562 48.28125 C 61.871094 47.46875 62.085938 48.324219 62.085938 52.144531 Z M 51.707031 50.425781 C 51.621094 50.855469 51.148438 51.242188 50.589844 51.328125 C 49.859375 51.457031 49.648438 51.242188 49.648438 50.597656 C 49.648438 49.914062 49.902344 49.699219 50.761719 49.699219 C 51.578125 49.699219 51.835938 49.914062 51.707031 50.425781 Z M 60.371094 50.554688 C 60.371094 51.113281 60.070312 51.414062 59.554688 51.414062 C 58.613281 51.414062 58.054688 50.769531 58.441406 50.125 C 58.957031 49.3125 60.371094 49.65625 60.371094 50.554688 Z M 52.648438 53.300781 C 52.648438 54.117188 52.390625 54.886719 52.136719 54.972656 C 51.792969 55.144531 51.835938 55.230469 52.261719 55.230469 C 53.035156 55.273438 53.507812 54.460938 53.507812 53.085938 C 53.507812 52.570312 53.808594 52.273438 54.324219 52.273438 C 54.75 52.273438 56.296875 52.144531 57.753906 52.015625 L 60.371094 51.714844 L 60.371094 56.949219 L 59 56.519531 C 58.226562 56.304688 55.910156 56.132812 53.851562 56.132812 L 50.074219 56.132812 L 50.074219 54.289062 C 50.074219 52.144531 50.246094 51.84375 51.664062 51.84375 C 52.519531 51.84375 52.648438 52.058594 52.648438 53.300781 Z M 52.222656 56.734375 C 52.222656 56.863281 52.050781 57.078125 51.792969 57.203125 C 51.578125 57.332031 51.363281 57.246094 51.363281 57.035156 C 51.363281 56.777344 51.578125 56.5625 51.792969 56.5625 C 52.050781 56.5625 52.222656 56.648438 52.222656 56.734375 Z M 54.367188 56.734375 C 54.367188 57.203125 53.550781 57.375 53.292969 56.992188 C 53.164062 56.777344 53.335938 56.5625 53.679688 56.5625 C 54.066406 56.5625 54.367188 56.648438 54.367188 56.734375 Z M 49.777344 59.308594 C 49.945312 59.691406 50.375 59.820312 50.890625 59.691406 C 51.578125 59.519531 51.792969 59.691406 51.835938 60.25 C 51.878906 60.980469 51.921875 60.980469 52.09375 60.292969 C 52.304688 59.519531 53.507812 59.265625 53.507812 60.035156 C 53.507812 60.292969 53.722656 60.335938 54.066406 60.121094 C 54.324219 59.949219 55.222656 59.777344 55.996094 59.691406 C 57.023438 59.648438 57.367188 59.777344 57.410156 60.335938 C 57.453125 60.980469 57.496094 60.980469 57.667969 60.292969 C 57.882812 59.4375 58.914062 59.308594 59.214844 60.078125 C 59.34375 60.421875 59.46875 60.378906 59.46875 59.90625 C 59.511719 59.519531 59.726562 59.050781 59.941406 58.921875 C 60.199219 58.75 60.371094 59.5625 60.371094 61.023438 L 60.371094 63.382812 L 58.742188 63.898438 C 56.382812 64.582031 49.734375 64.242188 49.21875 63.425781 C 48.703125 62.609375 48.660156 58.707031 49.175781 58.707031 C 49.390625 58.707031 49.648438 58.964844 49.777344 59.308594 Z M 49.777344 59.308594 "/><path style=" stroke:none;fill-rule:nonzero;fill:#ffffff;fill-opacity:1;" d="M 73.542969 58.320312 C 71.355469 59.480469 69.808594 61.964844 69.378906 65.011719 C 69.207031 66.386719 68.738281 68.746094 68.308594 70.246094 C 67.921875 71.746094 67.664062 73.421875 67.792969 73.976562 C 67.878906 74.535156 67.707031 75.222656 67.40625 75.480469 C 67.0625 75.738281 66.804688 75.824219 66.804688 75.652344 C 66.804688 75.4375 66.421875 75.652344 65.949219 76.082031 C 65.132812 76.808594 65.089844 76.808594 64.660156 75.652344 C 64.230469 74.492188 64.53125 71.320312 65.046875 71.789062 C 65.175781 71.960938 65.5625 72.691406 65.820312 73.421875 C 66.335938 74.707031 66.335938 74.664062 66.121094 72.5625 C 65.949219 70.976562 66.078125 69.945312 66.507812 69.003906 C 66.890625 68.316406 67.019531 67.714844 66.847656 67.714844 C 66.421875 67.714844 64.875 69.429688 64.273438 70.589844 C 63.675781 71.789062 63.675781 75.222656 64.273438 76.9375 C 64.746094 78.183594 64.660156 78.484375 63.503906 80.199219 C 61.574219 82.988281 59.855469 86.546875 60.027344 87.363281 C 60.15625 87.835938 60.714844 87.0625 61.574219 85.390625 C 63.203125 82.128906 65.390625 78.996094 66.25 78.65625 C 66.632812 78.527344 67.792969 78.996094 68.867188 79.726562 C 70.925781 81.101562 72.511719 81.3125 74.3125 80.5 C 75.773438 79.855469 75.6875 79.296875 74.097656 79.296875 C 73.414062 79.296875 72.8125 79.46875 72.8125 79.726562 C 72.8125 80.671875 70.023438 80.113281 68.609375 78.910156 C 67.234375 77.753906 67.191406 77.667969 68.050781 77.367188 C 68.996094 77.066406 70.195312 77.582031 71.097656 78.613281 C 71.398438 78.996094 71.824219 79.296875 72.039062 79.296875 C 72.253906 79.296875 71.738281 78.65625 70.882812 77.839844 L 69.335938 76.378906 L 70.410156 74.191406 C 71.011719 73.035156 71.695312 71.960938 71.910156 71.832031 C 72.125 71.660156 72.683594 72.132812 73.070312 72.863281 C 74.011719 74.40625 74.527344 74.492188 74.527344 73.164062 C 74.527344 72.648438 74.742188 71.917969 74.957031 71.574219 C 75.300781 71.019531 75.601562 71.0625 77.101562 71.875 C 79.03125 72.90625 79.117188 72.777344 78.21875 69.644531 C 77.617188 67.714844 77.617188 67.542969 78.476562 66.429688 C 79.675781 64.753906 79.976562 61.796875 79.03125 59.863281 C 78.644531 59.007812 78.433594 58.105469 78.601562 57.890625 C 79.074219 57.078125 75.257812 57.417969 73.542969 58.320312 Z M 75.386719 61.667969 C 75.386719 65.269531 74.785156 66.042969 73.027344 64.625 C 72.039062 63.855469 71.910156 63.511719 72.125 62.222656 C 72.382812 60.636719 73.839844 58.707031 74.828125 58.707031 C 75.214844 58.707031 75.386719 59.480469 75.386719 61.667969 Z M 77.53125 59.820312 C 77.53125 61.195312 76.757812 62.652344 76.203125 62.351562 C 75.6875 62.007812 75.6875 61.195312 76.242188 59.820312 C 76.757812 58.40625 77.53125 58.40625 77.53125 59.820312 Z M 78.816406 62.695312 C 78.816406 64.667969 77.53125 67.070312 76.457031 67.070312 C 75.085938 67.070312 75.171875 65.441406 76.757812 63.082031 C 78.347656 60.722656 78.816406 60.636719 78.816406 62.695312 Z M 71.867188 64.070312 C 72.167969 64.667969 72.855469 65.355469 73.414062 65.65625 C 74.742188 66.257812 75.085938 67.070312 74.269531 67.757812 C 72.683594 69.089844 69.808594 66.429688 70.410156 64.15625 C 70.753906 62.695312 71.226562 62.695312 71.867188 64.070312 Z M 71.4375 68.230469 C 72.339844 69.128906 71.996094 70.074219 70.195312 71.789062 L 68.394531 73.507812 L 68.695312 71.703125 C 69.207031 68.273438 70.195312 66.984375 71.4375 68.230469 Z M 77.101562 68.960938 C 77.316406 69.429688 77.53125 70.117188 77.53125 70.460938 C 77.53125 71.019531 77.359375 71.019531 76.242188 70.375 C 75.558594 69.988281 74.957031 69.300781 74.957031 68.875 C 74.957031 67.84375 76.542969 67.929688 77.101562 68.960938 Z M 74.097656 70.375 C 74.054688 72.089844 74.011719 72.175781 73.457031 71.40625 C 72.597656 70.289062 72.640625 68.574219 73.457031 68.574219 C 73.925781 68.574219 74.097656 69.046875 74.097656 70.375 Z M 74.097656 70.375 "/></g></svg>